<?xml version="1.0" encoding="utf-8" ?>
<svg xmlns="http://www.w3.org/2000/svg" xmlns:xlink="http://www.w3.org/1999/xlink" width="1024" height="1024">
	<path fill="#DD403A" transform="scale(2 2)" d="M159.864 242.2L160.589 242.062C161.577 243.16 163.735 250.721 164.439 252.59L177.379 286.205C178.359 288.81 179.132 291.641 180.332 294.137C181.156 295.85 183.962 299.146 183.95 300.789C170.916 291.039 170.824 282.076 166.571 266.963C164.252 258.722 161.76 250.552 159.864 242.2Z"/>
	<path fill="#697A21" transform="scale(2 2)" d="M234.779 392.499C228.006 393.845 220.312 389.18 216.587 383.817C206.871 369.829 217.491 348.312 234.779 351.75C233.049 352.887 231.074 353.499 229.288 354.522C214.821 362.799 217.827 383.042 231.368 390.754C232.478 391.387 233.69 391.841 234.779 392.499Z"/>
	<path fill="#A7BD30" transform="scale(2 2)" d="M284.434 187.986C283.667 180.63 282.474 173.208 281.442 165.879C279.15 149.591 278.527 143.094 297.177 143.239C305.757 143.306 315.114 144.46 323.378 144.301L323.843 144.29C317.167 144.787 310.503 145.578 303.826 146.123C283.112 147.813 285.669 143.87 287.968 162.821C288.986 171.216 289.923 179.609 291.091 187.986C280.121 188.231 267.05 188.47 256.131 187.986C259.495 187.618 262.989 187.945 266.373 187.967L284.434 187.986Z"/>
	<path fill="#080606" transform="scale(2 2)" d="M105.549 127.513C105.767 130.941 106.195 132.958 102.355 133.253C90.617 134.155 68.5809 134.263 56.7103 133.372C46.7607 132.625 46.038 119.397 53.4971 115.797C57.4922 113.869 102.372 114.489 104.856 115.384C105.38 116.014 105.4 116.215 105.549 116.993C105.182 120.359 105.301 124.132 105.549 127.513ZM56.4761 119C52.6801 122.646 51.4462 126.378 57.4878 128.255C57.3614 119.894 71.211 122.246 76.6023 122.246L101.249 122.262L101.249 119C97.2697 118.783 93.283 118.981 89.2998 118.996L69.6466 119.044C65.2612 119.098 60.8554 119.301 56.4761 119Z"/>
	<path fill="#DD403A" transform="scale(2 2)" d="M101.249 122.262C101.255 124.257 101.301 126.261 101.249 128.255L70.0125 128.245C66.5682 128.252 60.6024 128.754 57.4878 128.255C57.3614 119.894 71.211 122.246 76.6023 122.246L101.249 122.262Z"/>
	<path fill="#080606" transform="scale(2 2)" d="M241.519 351.75C242.196 348.012 240.512 346.134 245.173 345.749C245.208 347.966 245.336 350.226 245.173 352.438C265.701 359.184 270.105 382.394 251.556 391.452C245.924 394.202 240.729 393.823 234.779 392.499C233.69 391.841 232.478 391.387 231.368 390.754C217.827 383.042 214.821 362.799 229.288 354.522C231.074 353.499 233.049 352.887 234.779 351.75C237.025 351.787 239.274 351.757 241.519 351.75ZM245.173 357.189C255.265 362.908 252.987 379.589 244.674 386.922C243.735 387.75 240.73 389.323 240.42 390.197L240.666 390.315C255.483 389.899 265.182 375.973 255.984 363.537C253.953 360.791 248.77 356.674 245.38 356.118L245.021 356.471L245.173 357.189Z"/>
	<path fill="#697A21" transform="scale(2 2)" d="M240.666 390.315C237.62 391.098 230.869 386.41 228.761 384.32C217.558 373.208 223.74 354.993 241.519 355.264C241.664 357.732 244.269 360.637 245.173 357.189C255.265 362.908 252.987 379.589 244.674 386.922C243.735 387.75 240.73 389.323 240.42 390.197L240.666 390.315Z"/>
	<path fill="#DD403A" transform="scale(2 2)" d="M356.853 345.749C359.627 345.662 360.058 345.444 360.476 348.353L360.476 352.438C384.343 361.555 375.897 400.787 344.865 394.324C336.552 394.909 329.035 388.327 325.795 381.12C317.766 363.268 335.75 343.427 354.558 350.683C356.828 351.262 356.698 350.406 356.853 348.353C357.144 347.516 356.935 346.622 356.853 345.749ZM356.853 345.749C356.935 346.622 357.144 347.516 356.853 348.353C356.698 350.406 356.828 351.262 354.558 350.683C352.432 350.907 335.147 351.969 339.847 357.708C342.14 358.972 345.733 355.707 347.832 354.912C353.493 352.766 356.889 356.081 361.66 357.189C367.112 374.574 362.468 380.281 350.522 391.532C343.348 391.241 335.832 383.704 335.119 376.582C334.949 374.888 335.369 369.083 331.665 372.153C328.64 377.541 335.928 389.257 340.951 392.026C342.257 392.745 343.775 393.297 344.865 394.324C375.897 400.787 384.343 361.555 360.476 352.438L360.476 348.353C360.058 345.444 359.627 345.662 356.853 345.749Z"/>
	<path fill="#080606" transform="scale(2 2)" d="M356.853 345.749C359.627 345.662 360.058 345.444 360.476 348.353L360.476 352.438C384.343 361.555 375.897 400.787 344.865 394.324C343.775 393.297 342.257 392.745 340.951 392.026C335.928 389.257 328.64 377.541 331.665 372.153C335.369 369.083 334.949 374.888 335.119 376.582C335.832 383.704 343.348 391.241 350.522 391.532C362.468 380.281 367.112 374.574 361.66 357.189C356.889 356.081 353.493 352.766 347.832 354.912C345.733 355.707 342.14 358.972 339.847 357.708C335.147 351.969 352.432 350.907 354.558 350.683C356.828 351.262 356.698 350.406 356.853 348.353C357.144 347.516 356.935 346.622 356.853 345.749ZM361.66 357.189C367.112 374.574 362.468 380.281 350.522 391.532C371.617 391.179 377.964 365.594 361.66 357.189Z"/>
	<defs>
		<linearGradient id="gradient_0" gradientUnits="userSpaceOnUse" x1="318.39008" y1="72.445084" x2="211.25562" y2="348.64175">
			<stop offset="0" stop-color="#0A0B0C"/>
			<stop offset="1" stop-color="#2B2828"/>
		</linearGradient>
	</defs>
	<path fill="url(#gradient_0)" transform="scale(2 2)" d="M105.549 116.993C105.626 118.186 105.611 119.328 105.549 120.519C124.101 121.796 128.208 135.381 133.704 150.529C137.767 161.728 142.412 177.519 147.644 187.986L256.131 187.986C267.05 188.47 280.121 188.231 291.091 187.986C289.923 179.609 288.986 171.216 287.968 162.821C285.669 143.87 283.112 147.813 303.826 146.123C310.503 145.578 317.167 144.787 323.843 144.29C331.485 144.172 339.236 143.282 346.865 142.725L389.558 139.622C395.96 139.158 402.598 138.234 409.002 138.211C422.933 102.606 475.567 123.829 461.585 156.571C459.745 160.88 450.897 171.724 445.739 168.914C442.423 167.106 450.018 163.807 451.005 163.158C461.828 156.036 461.622 140.176 453.397 131.2C441.368 118.071 420.963 123.368 413.546 138.211C429.083 135.797 423.565 140.233 419.742 155.52L411.734 187.986C414.605 188.105 420.034 187.203 422.096 189.569C424.645 192.492 418.458 208.434 417.395 211.983L398.871 274.645C394.442 290.02 391.656 306.052 371.946 308.951C367.274 309.639 362.217 309.278 357.488 309.276L232.059 310.366C225.491 310.372 201.873 309.633 197.592 311.234C185 315.943 188.719 337.135 203.761 338.647C207.043 338.976 210.467 338.784 213.764 338.769L390.398 338.77C394.026 338.77 409.254 336.621 407.965 343.033C407.073 347.469 396.018 345.722 392.894 345.712L369.374 345.751C364.664 345.75 360.482 343.878 360.476 348.353C360.058 345.444 359.627 345.662 356.853 345.749C356.935 346.622 357.144 347.516 356.853 348.353C356.507 344.023 353.451 345.743 348.582 345.754L259.479 345.749C255.268 345.742 249.186 345.217 245.173 345.749C240.512 346.134 242.196 348.012 241.519 351.75C241.243 349.863 241.496 347.667 241.519 345.749L219.63 345.761C213.195 345.762 205.906 346.349 199.653 344.704C182.452 340.18 177.125 320.234 190.415 307.192C188.005 305.313 186.012 303.03 183.95 300.789C183.962 299.146 181.156 295.85 180.332 294.137C179.132 291.641 178.359 288.81 177.379 286.205L164.439 252.59C163.735 250.721 161.577 243.16 160.589 242.062L159.864 242.2C158.131 235.42 155.22 229.03 152.762 222.497L129.175 159.351C124.767 147.31 121.229 128.439 105.549 127.513C105.301 124.132 105.182 120.359 105.549 116.993ZM410.251 194.967C408.582 200.416 408.766 212.05 403.338 212.303C401.959 218.673 400.055 225.004 398.239 231.261L389.806 259.691C385.96 272.658 383.954 292.351 366.719 294.378C362.184 294.912 357.554 294.632 352.999 294.868L221.875 302.611C215.772 302.947 209.23 303.943 203.13 303.147C200.472 302.801 197.727 302.09 195.06 301.931L197.441 303.724C201.066 303.936 204.777 303.775 208.411 303.754L343.761 302.263C377.289 302.022 382.645 307.741 392.801 270.524C394.713 263.52 396.862 256.563 398.914 249.597L409.179 215.008C411.202 208.362 413.671 201.773 415.101 194.967C413.474 194.888 411.879 194.901 410.251 194.967ZM150.104 194.967C151.832 200.015 153.741 205.152 155.886 210.037C156.21 207.06 155.019 202.845 154.997 199.617C159.534 198.854 164.619 199.263 169.226 199.265L286.698 199.275C286.716 197.839 286.701 196.402 286.698 194.967L165.243 194.977C160.216 194.986 155.117 195.294 150.104 194.967ZM326.528 148.503C329.507 150.634 338.88 149.768 342.525 149.962C348.579 150.283 402.003 153.26 404.989 149.746C405.452 147.123 406.541 144.97 407.708 142.613L354.168 146.343C344.982 147.047 335.735 148.3 326.528 148.503ZM410.251 142.613C409.447 145.078 409.095 147.151 409.002 149.746C409.587 150.095 410.443 150.34 410.954 150.708C408.939 163.244 405.135 175.441 403.338 187.986L407.708 187.986C411.184 172.562 415.029 157.195 418.817 141.845C415.967 142.159 413.103 142.265 410.251 142.613ZM401.385 194.967C401.122 196.438 400.842 197.846 400.391 199.275C402.314 202.539 402.243 204.594 401.385 208.218L402.638 208.214C403.709 207.303 405.427 196.817 405.826 194.967L401.385 194.967Z"/>
	<path fill="white" transform="scale(2 2)" d="M286.698 194.967C288.302 194.967 290.638 194.68 291.977 195.711L292.278 196.747L292.278 199.275C290.418 199.296 288.558 199.283 286.698 199.275L286.698 199.275C286.716 197.839 286.701 196.402 286.698 194.967Z"/>
	<path fill="#A7BD30" transform="scale(2 2)" d="M286.698 194.967C288.302 194.967 290.638 194.68 291.977 195.711L292.278 196.747C290.047 197.952 287.537 195.67 286.698 199.275L286.698 199.275C286.716 197.839 286.701 196.402 286.698 194.967Z"/>
	<path fill="#A7BD30" transform="scale(2 2)" d="M297.355 196.747C297.161 196.309 297.091 195.999 297.064 195.521C298.384 194.408 344.826 194.964 350.522 194.967C348.045 196.806 344.907 196.492 341.994 196.747C329.014 195.898 310.412 196.348 297.355 196.747Z"/>
	<path fill="white" transform="scale(2 2)" d="M297.355 196.747C310.412 196.348 329.014 195.898 341.994 196.747C339.568 201.418 304.405 199.282 297.355 199.275C297.455 198.443 297.383 197.584 297.355 196.747Z"/>
	<path fill="#697A21" transform="scale(2 2)" d="M350.522 194.967L384.483 194.979C390.094 194.981 395.785 194.727 401.385 194.967C401.122 196.438 400.842 197.846 400.391 199.275C402.314 202.539 402.243 204.594 401.385 208.218C395.041 207.349 385.395 208.186 378.645 208.212L327.41 208.678C317.783 208.799 307.986 209.471 298.386 208.732C298.14 205.577 297.711 202.42 297.355 199.275C304.405 199.282 339.568 201.418 341.994 196.747C344.907 196.492 348.045 196.806 350.522 194.967Z"/>
	<path fill="#A7BD30" transform="scale(2 2)" d="M291.091 151.27C302.912 151.078 314.751 149.376 326.528 148.503C329.507 150.634 338.88 149.768 342.525 149.962C348.579 150.283 402.003 153.26 404.989 149.746C406.32 149.684 407.68 149.543 409.002 149.746C409.587 150.095 410.443 150.34 410.954 150.708C408.939 163.244 405.135 175.441 403.338 187.986L295.839 187.986L292.92 165.106C292.294 160.496 291.528 155.904 291.091 151.27Z"/>
	<path fill="#DD403A" transform="scale(2 2)" d="M286.698 199.275C288.558 199.283 290.418 199.296 292.278 199.275C292.841 201.424 293.896 212.543 294.93 213.126C297.28 214.451 389.627 212.045 401.385 212.891C402.03 212.674 402.684 212.491 403.338 212.303C401.959 218.673 400.055 225.004 398.239 231.261L389.806 259.691C385.96 272.658 383.954 292.351 366.719 294.378C362.184 294.912 357.554 294.632 352.999 294.868L221.875 302.611C215.772 302.947 209.23 303.943 203.13 303.147C200.472 302.801 197.727 302.09 195.06 301.931C187.031 295.206 185.582 288.613 181.933 279.126L160.959 224.17C159.194 219.517 157.233 214.831 155.886 210.037C156.21 207.06 155.019 202.845 154.997 199.617C159.534 198.854 164.619 199.263 169.226 199.265L286.698 199.275L286.698 199.275Z"/>
	<path fill="#080606" transform="scale(2 2)" d="M262.094 227.755C267.486 225.064 266.963 231.051 268.033 235.73C271.095 249.124 274.339 262.676 276.747 276.189C275.44 278.563 273.023 279.14 271.919 276.189C271.105 273.397 270.608 270.438 270.008 267.587L266.416 250.339L263.435 237.284C262.805 234.614 260.993 230.424 262.094 227.755Z"/>
	<path fill="#080606" transform="scale(2 2)" d="M319.161 227.755C327.31 222.136 319.298 244.611 319.037 245.588C317.927 249.748 309.809 289.618 305.773 276.189C308.005 264.889 315.219 238.287 319.161 227.755Z"/>
	<path fill="#080606" transform="scale(2 2)" d="M211.999 227.755C216.775 224.404 217.674 231.803 218.873 235.017L225.299 252.473C227.953 259.598 231.024 266.626 233.456 273.823C234.767 277.702 231.293 279.535 228.924 276.189C227.139 269.792 224.591 263.665 222.196 257.48L216.108 241.284C214.84 237.972 210.687 231.136 211.999 227.755Z"/>
	<path fill="#080606" transform="scale(2 2)" d="M370.499 227.755C377.165 229.413 370.984 236.729 368.698 241.659L357.564 265.176C355.679 269.066 353.34 275.142 351.044 278.499C349.253 281.116 346.177 280.692 346.237 277.371C348.178 274.696 350.283 269.01 351.77 265.845C356.369 256.053 364.917 236.096 370.499 227.755Z"/>
	<path fill="#F49029" transform="scale(2 2)" d="M222.83 276.189C221.032 273.671 204.361 230.564 204.635 228.359C205.052 225 209.42 223.893 211.999 227.755C210.687 231.136 214.84 237.972 216.108 241.284L222.196 257.48C224.591 263.665 227.139 269.792 228.924 276.189C228.304 276.738 223.872 276.21 222.83 276.189Z"/>
	<path fill="#F49029" transform="scale(2 2)" d="M305.773 276.189C304.073 276.155 300.785 276.516 299.664 274.943C298.421 273.199 311.687 226.487 314.223 225.189C316.167 224.194 318.452 226.013 319.161 227.755C315.219 238.287 308.005 264.889 305.773 276.189Z"/>
	<path fill="#F49029" transform="scale(2 2)" d="M271.919 276.189C270.22 276.195 265.656 276.833 264.605 275.074C263.446 273.136 254.169 229.577 254.969 227.174C256.195 223.493 260.865 224.833 262.094 227.755C260.993 230.424 262.805 234.614 263.435 237.284L266.416 250.339L270.008 267.587C270.608 270.438 271.105 273.397 271.919 276.189Z"/>
	<path fill="#F49029" transform="scale(2 2)" d="M346.237 277.371C334.986 275.86 342.821 268.892 346.628 260.983L355.875 242.087C358.963 235.651 362.848 218.43 370.499 227.755C364.917 236.096 356.369 256.053 351.77 265.845C350.283 269.01 348.178 274.696 346.237 277.371Z"/>
	<path fill="#697A21" transform="scale(2 2)" d="M286.698 199.275C288.558 199.283 290.418 199.296 292.278 199.275C292.841 201.424 293.896 212.543 294.93 213.126C297.28 214.451 389.627 212.045 401.385 212.891C400.087 214.58 398.694 216.106 397.049 217.463C390.807 218.619 383.772 218.038 377.416 218.037L309.224 218.032C303.635 218.037 297.83 218.476 292.278 218.031C286.906 213.08 288.562 205.62 286.698 199.275Z"/>
</svg>
