<?xml version="1.0" encoding="utf-8" ?>
<svg xmlns="http://www.w3.org/2000/svg" xmlns:xlink="http://www.w3.org/1999/xlink" width="1024" height="1024">
	<path fill="#DD403A" transform="scale(2 2)" d="M159.744 186.505C160.684 190.875 161.714 195.441 159.155 199.457C153.027 209.071 141.858 212.096 131.348 209.199C133.466 208.244 136.528 208.757 138.86 208.562C147.149 207.871 156.301 200.694 158.461 192.741C159.019 190.688 159.093 188.539 159.744 186.505Z"/>
	<path fill="#697A21" transform="scale(2 2)" d="M168.142 193.739C170.361 194.725 193.38 191.586 196.657 191.183C199.19 190.872 220.389 186.509 217.783 191.929C215.796 193.742 177.146 198.434 170.569 198.641C169.782 198.707 168.935 198.644 168.142 198.641C168.086 197.033 167.923 195.332 168.142 193.739Z"/>
	<path fill="#DD403A" transform="scale(2 2)" d="M387.079 283.756C400.644 297.549 406.189 316.541 406.04 335.677C405.937 348.971 385.511 346.769 384.063 344.253C410.753 346.467 400.989 310.109 394.053 296.401C392.076 292.493 387.899 288.002 387.079 283.756Z"/>
	<path fill="#697A21" transform="scale(2 2)" d="M139.976 348.279C145.063 348.094 142.926 358.606 142.241 361.872C137.208 385.896 107.696 396.921 88.1931 383.379C89.9787 382.28 92.2538 384.314 94.2144 384.871C118.011 391.627 140.096 372.639 139.976 348.279Z"/>
	<path fill="#DD403A" transform="scale(2 2)" d="M168.142 198.641C168.935 198.644 169.782 198.707 170.569 198.641C168.695 214.67 168.633 231.348 168.638 247.451C168.643 265.817 168.36 277.361 173.182 295.005C161.294 286.612 165.331 248.229 165.792 235.324C166.191 224.145 165.604 209.384 168.142 198.641Z"/>
	<path fill="#697A21" transform="scale(2 2)" d="M376.168 337.677C380.919 343.568 381.417 352.367 380.607 359.594C378.117 381.809 353.847 396.075 333.884 386.016C335.017 385.326 343.939 386.426 346.722 385.966C372.069 381.777 380.017 360.395 376.168 337.677Z"/>
	<path fill="#3E363F" transform="scale(2 2)" d="M303.221 346.297C306.132 314.618 346.305 299.753 364.762 320.687C370.558 325.018 373.499 331.121 376.168 337.677C380.017 360.395 372.069 381.777 346.722 385.966C343.939 386.426 335.017 385.326 333.884 386.016C331.999 385.014 329.676 384.395 327.677 383.599C312.396 377.509 303.169 362.609 303.221 346.297ZM349.468 315.769C327.533 316.725 315.494 325.695 309.641 346.297L306.49 346.297C306.257 355.722 309.934 366.812 317.412 372.995C316.606 371.097 315.487 369.31 314.67 367.392C303.877 342.068 323.539 314.617 350.943 319.69C355.307 320.498 363.441 323.455 366.031 327.249C368.517 329.311 365.156 325.267 364.627 324.695C360.431 320.15 355.276 317.615 349.468 315.769Z"/>
	<path fill="#DD403A" transform="scale(2 2)" d="M306.49 346.297C309.502 330.316 319.772 316.323 337.045 314.569C340.107 314.258 346.92 313.713 349.468 315.769C327.533 316.725 315.494 325.695 309.641 346.297L306.49 346.297Z"/>
	<path fill="white" transform="scale(2 2)" d="M341.597 338.644C359.044 335.336 364.393 359.66 347.101 364.795C329.626 368.108 324.132 341.892 341.597 338.644Z"/>
	<defs>
		<linearGradient id="gradient_0" gradientUnits="userSpaceOnUse" x1="394.30933" y1="341.43103" x2="271.93768" y2="126.83882">
			<stop offset="0" stop-color="#191110"/>
			<stop offset="1" stop-color="#2D2E2E"/>
		</linearGradient>
	</defs>
	<path fill="url(#gradient_0)" transform="scale(2 2)" d="M348.46 255.214C348.746 255.252 350.332 255.574 350.528 255.201C351.701 252.97 351.243 218.786 351.244 214.328L351.216 149.054C351.171 122.831 359.433 124.229 384.105 124.249L448.694 124.242C460.042 124.218 474.228 122.752 476.245 137.925C475.456 143.089 477.461 162.576 475.695 165.421C468.935 169.926 475.739 141.103 470.6 132.9L470.451 132.668C466.193 126.121 458.204 127.415 451.464 127.418L432.878 127.437C432.884 139.194 433.04 150.975 432.878 162.729C423.041 163.074 413.078 162.726 403.225 162.729C396.494 162.577 399.748 160.878 399.793 156.937C399.886 148.851 399.811 140.755 399.797 132.668C372.095 132.917 359.779 126.712 359.803 160.466L359.82 259.842C363.707 262.535 367.98 264.644 371.674 267.628C374.201 269.67 377.926 274.389 380.751 275.554C382.423 278.768 384.644 281.126 387.079 283.756C387.899 288.002 392.076 292.493 394.053 296.401C400.989 310.109 410.753 346.467 384.063 344.253L384.063 341.982C388.488 339.798 393.982 340.663 396.776 335.561C400.048 329.584 396.906 314.549 394.931 308.225C389.46 290.712 376.29 272.448 359.82 263.823C356.452 261.59 352.242 260.246 348.46 258.849L347.101 259.842C341.79 259.616 336.377 259.836 331.053 259.838L270.515 259.842C265.674 259.838 260.805 259.594 255.971 259.842C254.378 259.161 252.928 257.988 251.511 256.993C251.217 264.978 253.288 270.224 254.736 277.857C256.93 289.422 254.135 305.333 240.711 308.152C235.227 309.303 223.48 308.634 217.337 308.634C205.562 308.634 191.364 310.554 180.237 306.117C162.388 295.046 161.589 276.083 161.594 257.25C161.599 241.613 162.683 226.171 163.32 210.58C163.502 206.108 164.606 200.018 163.943 195.765C166.519 183.329 163.322 186.609 178.717 184.596L199.825 181.903C201.5 181.682 215.873 177.786 214.359 182.593C212.454 184.776 174.013 188.643 168.65 189.665C168.411 191.003 168.301 192.388 168.142 193.739C167.923 195.332 168.086 197.033 168.142 198.641C165.604 209.384 166.191 224.145 165.792 235.324C165.331 248.229 161.294 286.612 173.182 295.005C177.289 302.012 183.863 305.023 191.942 305.231C200.699 305.457 232.908 306.504 240.497 304.851C251.659 302.421 253.552 288.046 251.62 278.689C249.307 267.488 248.349 267.179 248.271 255.214C231.713 246.283 235.372 225.126 250.348 223.203C253.969 222.739 257.961 223.099 261.627 223.1L314.177 223.105C329.287 223.095 331.095 219.984 341.597 231.978C349.176 237.442 350.2 246.719 348.46 255.214ZM353.774 256.993C355.761 258.254 357.581 259.125 359.82 259.842L359.803 160.466C359.779 126.712 372.095 132.917 399.797 132.668L399.797 127.437L378.594 127.422C354.154 127.42 354.38 131.525 354.388 155.078L353.774 256.993ZM248.271 251.187C248.093 249.146 247.42 247.122 247.228 245.05C245.571 227.198 264.834 230.702 275.688 230.701L316.627 230.681C323.145 230.681 329.817 231.063 336.311 230.692C330.466 224.194 318.981 226.49 311.101 226.498L258.884 226.482C256.446 226.476 253.642 226.113 251.249 226.49C238.747 228.464 237.054 244.709 248.271 251.187ZM403.225 127.437L403.21 148.839C403.207 152.337 402.977 155.956 403.225 159.436C404.639 159.422 406.097 159.34 407.505 159.436L407.505 132.668C414.838 132.581 422.177 132.655 429.51 132.668L429.51 127.437C421.918 128.03 410.972 127.569 403.225 127.437Z"/>
	<path fill="#3E363F" transform="scale(2 2)" d="M341.597 231.978C349.176 237.442 350.2 246.719 348.46 255.214C345.242 253.869 341.852 253.008 338.517 252.005C343.285 245.757 343.116 239.377 341.597 231.978Z"/>
	<path fill="#3E363F" transform="scale(2 2)" d="M251.511 256.993C251.232 254.284 256.56 255.232 259.23 255.215L322.059 255.214C326.044 255.21 332.591 254.11 335.383 254.29C338.152 254.469 346.403 257.067 348.46 258.849L347.101 259.842C341.79 259.616 336.377 259.836 331.053 259.838L270.515 259.842C265.674 259.838 260.805 259.594 255.971 259.842C254.378 259.161 252.928 257.988 251.511 256.993Z"/>
	<path fill="#DD403A" transform="scale(2 2)" d="M429.51 132.668L429.51 159.436L407.505 159.436L407.505 132.668C414.838 132.581 422.177 132.655 429.51 132.668Z"/>
	<path fill="#3E363F" transform="scale(2 2)" d="M336.311 230.692C342.241 239.021 339.306 251.026 327.936 251.91C323.092 252.286 318.045 252.012 313.181 252.01L264.02 252.008C259.393 252.028 252.506 253.297 248.271 251.187C248.093 249.146 247.42 247.122 247.228 245.05C245.571 227.198 264.834 230.702 275.688 230.701L316.627 230.681C323.145 230.681 329.817 231.063 336.311 230.692Z"/>
	<path fill="#3E363F" transform="scale(2 2)" d="M121.421 205.155C100.671 189.194 112.766 159.905 135.73 160.032C150.091 160.112 159.962 172.843 159.744 186.505C159.093 188.539 159.019 190.688 158.461 192.741C156.301 200.694 147.149 207.871 138.86 208.562C136.528 208.757 133.466 208.244 131.348 209.199L124.57 206.886C123.887 221.148 116.112 270.824 106.402 281.751C109.133 282.114 111.52 282.596 114.039 283.756C131.853 285.536 146.626 303.87 149.676 320.687C151.093 324.985 152.236 334.17 150.186 338.25C147.262 344.072 141.85 342.725 140.064 344.834L139.976 345.461L139.976 348.279C140.096 372.639 118.011 391.627 94.2144 384.871C92.2538 384.314 89.9787 382.28 88.1931 383.379C73.3903 376.469 65.8008 360.138 66.4329 344.253C57.9005 344.294 44.6525 344.331 45.4848 332.486C47.5847 302.599 75.8291 279.866 105.493 281.751C103.193 280.395 103.72 280.957 104.831 278.301C114.53 255.104 120.393 230.31 121.421 205.155ZM70.2068 344.253C68.9087 355.515 72.3971 364.269 79.3195 372.995C77.1176 363.728 72.761 360.78 72.7306 348.279C77.8531 348.466 83.0624 348.28 88.1931 348.279C94.8226 348.047 87.6021 354.665 95.9894 361.219C105.901 368.964 118.86 361.172 117.519 348.279L121.421 348.279L136.499 348.279L136.499 344.253L70.2068 344.253ZM54.9039 339.976C54.2843 335.838 55.0289 332.233 56.1885 328.247C65.3872 296.631 98.4847 281.054 128.491 295.303C130.754 296.378 133.273 299.732 135.718 299.915C116.577 279.707 84.8415 280.725 65.1074 299.619C59.0935 305.378 38.7606 337.393 54.9039 339.976ZM122.9 201.727C119.982 195.371 118.22 188.957 120.53 182.071C125.093 168.469 137.234 165.083 149.676 169.359C128.531 147.909 98.6467 186.58 122.9 201.727Z"/>
	<path fill="#DD403A" transform="scale(2 2)" d="M122.9 201.727C119.982 195.371 118.22 188.957 120.53 182.071C125.093 168.469 137.234 165.083 149.676 169.359C169.519 188.208 142.111 216.929 122.9 201.727Z"/>
	<path fill="#DD403A" transform="scale(2 2)" d="M54.9039 339.976C54.2843 335.838 55.0289 332.233 56.1885 328.247C65.3872 296.631 98.4847 281.054 128.491 295.303C130.754 296.378 133.273 299.732 135.718 299.915C143.827 307.955 147.988 320.619 147.984 331.885C147.98 342.765 137.097 340.748 129.533 340.75L110.351 340.753C94.6547 340.753 69.5752 342.583 54.9039 339.976Z"/>
	<path fill="#697A21" transform="scale(2 2)" d="M432.878 127.437L451.464 127.418C458.204 127.415 466.193 126.121 470.451 132.668L470.6 132.9C475.739 141.103 468.935 169.926 475.695 165.421C477.461 162.576 475.456 143.089 476.245 137.925C480.868 142.452 480.889 145.366 480.95 151.491L480.948 245.558C480.947 255.551 480.808 265.564 480.952 275.554L380.751 275.554C377.926 274.389 374.201 269.67 371.674 267.628C367.98 264.644 363.707 262.535 359.82 259.842L359.803 160.466C359.779 126.712 372.095 132.917 399.797 132.668C399.811 140.755 399.886 148.851 399.793 156.937C399.748 160.878 396.494 162.577 403.225 162.729C413.078 162.726 423.041 163.074 432.878 162.729C433.04 150.975 432.884 139.194 432.878 127.437ZM432.878 127.437C432.884 139.194 433.04 150.975 432.878 162.729C423.041 163.074 413.078 162.726 403.225 162.729C403.169 164.305 403.21 165.885 403.225 167.462C414.662 167.043 426.26 167.455 437.712 167.462C437.715 155.877 437.476 144.247 437.712 132.668L459.478 132.684C463.116 132.688 466.822 132.859 470.451 132.668C466.193 126.121 458.204 127.415 451.464 127.418L432.878 127.437Z"/>
	<path fill="#080806" transform="scale(2 2)" d="M443.012 256.993C446.266 256.977 468.077 255.419 464.482 259.885C464.001 260.484 463.387 260.466 462.69 260.596C458.937 260.653 442.63 261.572 440.789 259.406C440.285 257.53 441.458 257.256 443.012 256.993Z"/>
	<path fill="#080806" transform="scale(2 2)" d="M474.117 182.701C478.141 183.769 476.681 203.496 476.076 206.483C475.561 207.176 474.891 207.357 474.117 207.653C471.469 206.244 472.132 186.236 472.757 184.032C472.961 183.313 473.541 183.089 474.117 182.701Z"/>
	<path fill="#080806" transform="scale(2 2)" d="M381.618 267.247L405.095 267.266C407.967 267.27 411.283 266.894 414.112 267.213C416.367 267.468 417.087 270.326 414.236 270.931C405.793 271.073 389.734 271.889 381.637 270.974C379.202 270.699 378.878 267.823 381.618 267.247Z"/>
	<path fill="#080806" transform="scale(2 2)" d="M474.117 223.107C476.34 223.365 476.237 224.696 476.278 226.554C476.363 230.455 476.588 268.488 475.908 270.233C471.597 271.587 461.348 270.932 456.333 270.934L431.374 270.931C430.061 270.782 427.579 269.735 429.358 268.059C431.465 266.074 440.961 267.258 443.845 267.257L472.582 267.247C472.554 261.448 471.081 226.027 474.117 223.107Z"/>
	<path fill="#DD403A" transform="scale(2 2)" d="M163.943 195.765C164.606 200.018 163.502 206.108 163.32 210.58C162.683 226.171 161.599 241.613 161.594 257.25C161.589 276.083 162.388 295.046 180.237 306.117C191.364 310.554 205.562 308.634 217.337 308.634C223.48 308.634 235.227 309.303 240.711 308.152C254.135 305.333 256.93 289.422 254.736 277.857C253.288 270.224 251.217 264.978 251.511 256.993C252.928 257.988 254.378 259.161 255.971 259.842C260.805 259.594 265.674 259.838 270.515 259.842L331.053 259.838C336.377 259.836 341.79 259.616 347.101 259.842L348.46 258.849C352.242 260.246 356.452 261.59 359.82 263.823C376.29 272.448 389.46 290.712 394.931 308.225C396.906 314.549 400.048 329.584 396.776 335.561C393.982 340.663 388.488 339.798 384.063 341.982C381.841 336.037 372.374 319.846 364.762 320.687C346.305 299.753 306.132 314.618 303.221 346.297L168.224 346.25C163.37 346.237 159.458 348.516 158.813 341.982C157.257 341.234 156.735 339.97 157.945 338.644C158.286 331.438 154.077 320.186 149.676 314.499C150.171 316.07 150.571 317.679 151.003 319.269C152.694 324.475 154.666 337.98 152.054 342.879C150.237 346.287 143.122 345.65 139.976 345.461L140.064 344.834C141.85 342.725 147.262 344.072 150.186 338.25C152.236 334.17 151.093 324.985 149.676 320.687C146.626 303.87 131.853 285.536 114.039 283.756C114.756 280.815 116.075 277.949 117.186 275.139C125.361 254.472 130.185 232.518 130.203 210.231C141.975 213.07 152.63 212.805 160.271 201.776C161.556 199.921 162.483 197.834 163.787 195.982L163.943 195.765ZM251.511 256.993C251.217 264.978 253.288 270.224 254.736 277.857C256.93 289.422 254.135 305.333 240.711 308.152C235.227 309.303 223.48 308.634 217.337 308.634C205.562 308.634 191.364 310.554 180.237 306.117C187.364 313.646 196.649 313.363 206.091 313.374L227.671 313.381C238.217 313.387 248.099 316.183 255.776 307.088C266.169 294.777 257.173 275.356 255.971 259.842C254.378 259.161 252.928 257.988 251.511 256.993Z"/>
	<path fill="white" transform="scale(2 2)" d="M348.46 258.849C352.242 260.246 356.452 261.59 359.82 263.823C357.381 263.688 349.739 260.815 347.101 259.842L348.46 258.849Z"/>
	<path fill="#080806" transform="scale(2 2)" d="M157.945 338.644L277.969 338.647C281.617 338.647 293.808 336.535 293.123 341.32C291.577 342.81 281.228 341.968 278.926 341.968L165.82 341.956C163.556 341.95 161.046 341.71 158.813 341.982C157.257 341.234 156.735 339.97 157.945 338.644Z"/>
</svg>
