<?xml version="1.0" encoding="utf-8" ?>
<svg xmlns="http://www.w3.org/2000/svg" xmlns:xlink="http://www.w3.org/1999/xlink" width="1024" height="1024">
	<path fill="#A42414" transform="scale(2 2)" d="M263.369 313.033C264.697 315.267 266.332 317.455 267.554 319.729C259.499 329.26 225.356 355.381 210.575 349.46L210.575 349.46C213.415 347.268 216.932 345.644 220.003 343.763C231.662 336.624 242.641 328.988 253.357 320.511C256.611 317.937 259.827 315.204 263.369 313.033Z"/>
	<path fill="#3E363F" transform="scale(2 2)" d="M83.4616 258.344C84.7618 257.725 86.0571 257.221 87.4157 256.748C111.445 289.585 140.938 315.541 175.817 336.504C183.771 341.285 196.547 351.732 205.835 346.934L205.835 346.934C207.534 347.666 208.949 348.723 210.575 349.46L210.575 349.46C196.085 357.303 188.481 349.271 175.3 341.278C136.97 318.037 109.325 294.45 83.4616 258.344Z"/>
	<path fill="#F68D4E" transform="scale(2 2)" d="M286.399 128.116C326.948 128.835 348.742 165.611 347.885 202.995C347.577 216.452 343.842 228.184 339.481 240.762C337.084 239.059 333.32 236.32 330.32 236.078C331.749 233.426 332.665 230.025 333.548 227.135C346.596 184.427 331.321 141.507 286.399 128.116Z"/>
	<path fill="#697A21" transform="scale(2 2)" d="M411.99 231.739C437.616 233.617 450.355 259.349 448.45 282.9C445.931 314.034 425.132 340.18 402.079 359.653C394.907 365.71 364.644 388.966 355.552 382.049C392.757 366.758 440.37 320.907 441.356 279.077C441.747 262.469 435.938 247.388 421.998 237.67C419.32 235.802 413.885 234.057 411.99 231.739Z"/>
	<path fill="#3E363F" transform="scale(2 2)" d="M203.415 168.971C218.496 139.098 253.297 120.344 286.399 128.116C331.321 141.507 346.596 184.427 333.548 227.135C332.665 230.025 331.749 233.426 330.32 236.078C333.32 236.32 337.084 239.059 339.481 240.762C344.613 244.562 348.795 249.413 352.891 254.267C363.462 239.098 381.329 228.6 400.209 229.82C404.149 230.074 407.878 231.307 411.768 231.717L411.99 231.739C413.885 234.057 419.32 235.802 421.998 237.67C435.938 247.388 441.747 262.469 441.356 279.077C440.37 320.907 392.757 366.758 355.552 382.049C346.583 385.782 341.995 382.392 334.054 378.4C311.92 367.273 279.637 342.315 267.554 319.729C266.332 317.455 264.697 315.267 263.369 313.033C262.917 311.392 262.045 310.005 261.07 308.632C259.094 304.748 257.461 297.932 256.87 293.687C240.591 306.484 220.46 319.028 199.136 319.772C183.292 320.325 177.656 311.773 191.4 314.361C209.34 317.738 243.651 302.325 255.493 288.026C253.196 255.414 268.708 229.732 303.155 229.031C305.056 224.022 306.369 218.522 307.047 213.203C307.291 211.286 306.77 205.197 309.968 205.549C315.208 206.127 308.852 225.856 307.862 229.031C314.48 230.061 320.028 231.91 326.19 234.544C334.405 214.581 336.712 190.645 328.609 170.268C319.022 146.16 294.51 130.131 268.749 130.69C265.909 130.751 262.717 130.904 260.048 131.972C239.457 133.91 217.601 151.852 208.211 169.328C206.297 172.889 205.059 177.772 202.251 180.655C199.717 179.137 195.201 170.017 193.071 166.962C183.74 153.572 157.076 129.73 139.363 131.972C106.425 124.812 74.9387 151.613 68.2514 183.251C63.9983 203.372 70.5479 232.95 83.4616 249.179C82.024 249.785 80.5889 250.392 79.1674 251.036C66.0324 230.776 59.1983 204.729 64.2331 180.898C74.6811 131.445 131.573 110.85 173.207 139.874C185.997 145.169 197.009 156.899 203.415 168.971ZM267.554 251.036C268.304 252.763 265.19 258.033 264.576 259.833C260.448 271.933 262.089 289.704 267.026 301.635C279.941 332.846 314.356 359.985 344.66 374.627C347.038 375.776 349.81 376.774 352.031 378.157C387.004 365.507 433.41 320.764 436.696 283.177C438.779 259.352 425.229 236.193 400.008 234.265C396.868 234.024 390.624 233.914 388.092 236.078L388.344 236.208C375.806 239.808 366.597 246.723 358.674 257.018C357.136 259.018 355.074 262.471 352.891 263.727C351.9 264.484 351.301 266.426 350.82 267.57C348.806 264.639 347.243 261.385 345.382 258.351C328.647 231.07 285.649 222.544 267.554 251.036ZM267.554 251.036C240.404 302.522 291.264 351.181 333.703 373.388C338.198 375.74 342.977 378.268 347.837 379.743C349.251 379.248 350.643 378.721 352.031 378.157C349.81 376.774 347.038 375.776 344.66 374.627C314.356 359.985 279.941 332.846 267.026 301.635C262.089 289.704 260.448 271.933 264.576 259.833C265.19 258.033 268.304 252.763 267.554 251.036ZM388.092 236.078C375.652 236.646 356.132 251.497 352.891 263.727C355.074 262.471 357.136 259.018 358.674 257.018C366.597 246.723 375.806 239.808 388.344 236.208L388.092 236.078Z"/>
	<path fill="#DD403A" transform="scale(2 2)" d="M330.32 236.078C333.32 236.32 337.084 239.059 339.481 240.762C344.613 244.562 348.795 249.413 352.891 254.267C352.59 255.746 351.607 257.08 350.82 258.344C346.646 252.259 342.496 246.712 336.796 241.896C335.116 240.476 330.16 238.409 330.32 236.078Z"/>
	<path fill="#F68D4E" transform="scale(2 2)" d="M173.207 139.874C185.997 145.169 197.009 156.899 203.415 168.971C203.09 170.021 202.661 171.033 202.251 172.053C193.483 161.967 190.669 154.503 178.609 144.516C176.922 143.119 174.226 141.848 173.207 139.874Z"/>
	<path fill="#A3BB38" transform="scale(2 2)" d="M267.554 251.036C285.649 222.544 328.647 231.07 345.382 258.351C347.243 261.385 348.806 264.639 350.82 267.57C351.301 266.426 351.9 264.484 352.891 263.727C355.074 262.471 357.136 259.018 358.674 257.018C366.597 246.723 375.806 239.808 388.344 236.208L388.092 236.078C390.624 233.914 396.868 234.024 400.008 234.265C425.229 236.193 438.779 259.352 436.696 283.177C433.41 320.764 387.004 365.507 352.031 378.157C349.81 376.774 347.038 375.776 344.66 374.627C314.356 359.985 279.941 332.846 267.026 301.635C262.089 289.704 260.448 271.933 264.576 259.833C265.19 258.033 268.304 252.763 267.554 251.036ZM393.417 242.517C382.353 242.84 371.265 250.16 363.853 257.99C362.382 259.544 354.35 269.214 354.297 271.217C354.275 272.036 356.383 272.777 356.959 273.053C362.088 268.171 365.715 261.845 371.414 256.748C385.411 245.625 401.066 244.482 414.941 255.925C426.339 249.875 401.861 241.277 393.417 242.517Z"/>
	<path fill="#3E363F" transform="scale(2 2)" d="M273.715 289.681C268.536 275.663 274.043 256.915 287.364 249.453C291.379 247.204 295.239 249.867 288.165 254.134C275.36 261.858 274.81 276.317 277.4 289.681C276.018 290.824 275.178 290.632 273.715 289.681Z"/>
	<path fill="white" transform="scale(2 2)" d="M281.365 289.681C277.924 296.956 270.743 295.367 268.516 287.864C264.855 275.529 271.101 250.661 284.375 246.282C285.592 245.88 287.492 245.669 287.412 247.414C285.513 248.988 283.143 249.947 281.233 251.545C272.977 258.45 265.64 279.649 272.027 288.986C273.428 293.373 278.963 292.801 278.638 288.026C277.415 277.099 277.322 269.316 284.529 260.268C285.43 259.136 295.831 248.795 294.833 254.724C293.21 256.608 290.747 257.836 288.885 259.513C277.754 269.537 280.972 278.054 281.365 289.681Z"/>
	<path fill="#3E363F" transform="scale(2 2)" d="M425.092 280.231C427.204 280.281 427.908 281.582 427.889 283.585C427.537 319.319 380.547 364.685 343.496 363.729C341.693 363.403 340.355 362.543 340.627 360.503C342.381 358.215 348.149 359.246 350.877 359.026C382.288 356.497 419.429 315.993 422.928 285.701C423.211 283.249 422.817 281.59 425.092 280.231Z"/>
	<path fill="#DD403A" transform="scale(2 2)" d="M260.048 131.972C262.717 130.904 265.909 130.751 268.749 130.69C294.51 130.131 319.022 146.16 328.609 170.268C336.712 190.645 334.405 214.581 326.19 234.544C320.028 231.91 314.48 230.061 307.862 229.031C308.852 225.856 315.208 206.127 309.968 205.549C306.77 205.197 307.291 211.286 307.047 213.203C306.369 218.522 305.056 224.022 303.155 229.031C268.708 229.732 253.196 255.414 255.493 288.026C243.651 302.325 209.34 317.738 191.4 314.361C177.656 311.773 183.292 320.325 199.136 319.772C220.46 319.028 240.591 306.484 256.87 293.687C257.461 297.932 259.094 304.748 261.07 308.632C262.045 310.005 262.917 311.392 263.369 313.033C259.827 315.204 256.611 317.937 253.357 320.511C242.641 328.988 231.662 336.624 220.003 343.763C216.932 345.644 213.415 347.268 210.575 349.46C208.949 348.723 207.534 347.666 205.835 346.934L205.835 346.934C154.267 325.653 72.9479 257.827 73.2295 196.999C73.3993 160.312 102.94 131.669 139.363 131.972C157.076 129.73 183.74 153.572 193.071 166.962C195.201 170.017 199.717 179.137 202.251 180.655C205.059 177.772 206.297 172.889 208.211 169.328C217.601 151.852 239.457 133.91 260.048 131.972ZM90.4692 215.14C85.4749 221.192 98.6482 220.602 93.7325 215.14C92.5498 214.97 91.6376 214.899 90.4692 215.14Z"/>
	<path fill="white" transform="scale(2 2)" d="M118.297 158.689C123.088 160.713 115.458 164.851 114.21 165.728C102.422 174.008 96.5355 188.718 97.466 202.885C97.7432 207.105 101.573 215.539 97.809 217.312C92.289 216.742 93.508 197.053 93.9912 193.33C95.8875 178.719 104.802 165.058 118.297 158.689Z"/>
	<path fill="white" transform="scale(2 2)" d="M260.048 131.972L260.135 132.122C238.483 140.369 224.297 151.39 211.826 171.683C209.872 174.863 207.094 184.698 202.251 180.655C205.059 177.772 206.297 172.889 208.211 169.328C217.601 151.852 239.457 133.91 260.048 131.972Z"/>
	<path fill="#151515" transform="scale(2 2)" d="M205.835 346.934C222.913 336.481 239.428 326.152 254.961 313.385C256.932 311.765 258.879 309.945 261.07 308.632C262.045 310.005 262.917 311.392 263.369 313.033C259.827 315.204 256.611 317.937 253.357 320.511C242.641 328.988 231.662 336.624 220.003 343.763C216.932 345.644 213.415 347.268 210.575 349.46C208.949 348.723 207.534 347.666 205.835 346.934Z"/>
	<path fill="#3E363F" transform="scale(2 2)" d="M90.4692 215.14C87.969 213.863 86.9895 205.459 86.666 202.789C85.0615 189.545 88.5255 176.361 96.8361 165.892C100.884 160.792 116.619 147.917 115.522 155.769C115.128 158.584 111.52 159.288 109.426 160.581C95.7557 169.015 89.2993 187.388 91.5566 202.749C92.1506 206.792 94.1262 211.035 93.7325 215.14C92.5498 214.97 91.6376 214.899 90.4692 215.14Z"/>
	<path fill="white" transform="scale(2 2)" d="M268.505 147.17C276.765 147.066 283.983 148.192 291.611 151.43C293.639 152.291 301.976 155.96 298.455 159.227C295.709 161.775 292.173 157.925 289.781 156.608C269.725 145.567 241.071 155.87 225.451 170.436C218.356 177.331 213.034 185.182 207.794 193.499C214.465 166.174 240.807 147.875 268.505 147.17Z"/>
</svg>
