<?xml version="1.0" encoding="utf-8" ?>
<svg xmlns="http://www.w3.org/2000/svg" xmlns:xlink="http://www.w3.org/1999/xlink" width="1024" height="1024">
	<path fill="#3E363F" transform="scale(2 2)" d="M388.513 148.915C387.814 146.463 387.137 142.551 385.641 140.545C384.396 138.877 381.162 137.33 382.426 134.73C383.87 131.76 388.154 136.801 389.063 138.12C394.567 146.109 393.903 152.917 392.494 161.515L357.365 364.311C354.855 378.698 354.741 394.852 334.539 394.672C338.492 392.113 342.661 390.086 346.047 386.728C348.864 384.197 349.599 381.684 350.656 378.195C353.155 358.767 357.223 339.542 360.522 320.238L386.733 168.681C387.716 162.885 391.111 153.863 388.513 148.915Z"/>
	<path fill="#DD403A" transform="scale(2 2)" d="M383.901 147.872C385.483 148.136 386.981 148.434 388.513 148.915C391.111 153.863 387.716 162.885 386.733 168.681L360.522 320.238C357.223 339.542 353.155 358.767 350.656 378.195L348.813 378.195C351.107 369.315 351.761 359.943 351.501 350.797L351.351 351.173C347.338 361.363 347.404 379.367 337.623 383.58C333.792 385.23 310.311 385.955 304.152 386.353L209.429 392.79C200.131 393.552 190.701 394.501 181.364 394.193C181.362 392.906 181.245 391.487 181.364 390.213C181.525 394.153 197.116 390.876 201.226 390.561C212.121 389.726 223.051 389.139 233.959 388.455L315.602 383.58C321.42 383.229 327.278 383.058 333.081 382.51C343.509 381.525 342.884 369.812 344.53 362.078C347.534 347.962 350.263 334.515 352.921 320.292L378.656 176.166C380.235 166.755 381.694 157.152 383.901 147.872Z"/>
	<path fill="#3E363F" transform="scale(2 2)" d="M136.042 396.275C115.148 379.575 119.195 371.894 124.173 347.363L153.204 204.45C156.843 186.913 160.074 169.292 163.855 151.783C165.182 145.641 165.804 139.059 168.176 133.224C180.606 102.656 214.234 105.02 241.144 103.386C255.468 102.516 269.79 101.286 284.109 100.28L338.442 96.2997C348.337 95.5931 366.849 91.0444 373.506 99.4573C375.738 102.279 382.318 115.515 383.901 119.368C382.304 124.975 381.645 130.97 380.572 136.698L352.093 295.164C350.269 305.4 348.65 315.668 346.945 325.923C344.677 339.566 344.191 353.742 326.971 357.027C322.649 357.852 317.935 357.498 313.533 357.769L223.668 363.787C212.567 364.48 201.588 365.507 190.458 365.249C183.294 372.214 181.97 380.619 181.364 390.213C181.245 391.487 181.362 392.906 181.364 394.193C190.701 394.501 200.131 393.552 209.429 392.79L304.152 386.353C310.311 385.955 333.792 385.23 337.623 383.58C347.404 379.367 347.338 361.363 351.351 351.173L351.501 350.797C351.761 359.943 351.107 369.315 348.813 378.195L350.656 378.195C349.599 381.684 348.864 384.197 346.047 386.728C342.661 390.086 338.492 392.113 334.539 394.672C329.334 395.39 324.061 395.675 318.824 396.069L224.426 403.164C210.445 404.194 196.323 404.688 182.415 406.498C187.682 427.425 173.92 408.628 167.869 403.046L167.57 403.261C161.025 408.016 151.113 425.211 153.105 407.989C144.902 406.923 140.711 402.971 136.042 396.275ZM187.258 360.369C199.467 361.227 207.902 360.341 220.112 359.588L307.462 353.895C318.27 353.241 335.493 355.327 339.55 341.875C341.464 335.53 342.576 324.218 343.864 317.211L376.724 132.665C379.097 119.822 380.62 122.169 374.341 110.346C374.581 115.303 373.078 120.424 372.192 125.286L339.608 308.546C337.203 322.113 337.866 340.441 321.532 345.004C315.97 346.558 304.24 346.315 297.954 346.693L225.668 351.563C212.613 352.573 197.54 350.707 187.258 360.369ZM128.643 382.949C128.439 374.3 129.943 366.603 131.664 358.12L171.356 163.39C175.455 141.641 185.519 119.484 211.995 120.145C212.716 116.165 213.477 112.901 215.57 109.383C211.602 110.293 207.476 109.917 203.48 110.645C177.558 115.37 172.366 131.788 167.983 153.226L130.293 339.419C127.782 352.422 120.194 371.456 128.643 382.949ZM221.641 109.383C217.593 111.844 216.889 116.708 216.414 121.025C217.221 121.539 217.992 122.002 218.869 122.388C225.601 113.835 237.461 115.972 247.127 115.21L304.622 111.216C320.627 110.029 336.628 108.703 352.647 107.74C362.345 107.157 366.2 104.174 374.341 110.346C366.287 93.8758 363.297 98.8984 345.13 100.32L236.119 108.144C231.375 108.453 226.272 108.364 221.641 109.383ZM143.438 393.207C147.726 393.398 151.995 393.596 156.289 393.537C157.531 388.346 160.853 378.002 164.404 373.93C164.998 373.25 166.059 372.791 166.085 374.081C166.135 376.5 164.172 379.938 163.418 382.317C160.873 390.344 159.091 398.115 158.122 406.498C167.94 393.807 168.619 397.482 177.629 406.498L177.574 406.163C175.113 390.818 176.06 376.853 185.22 364.213C174.121 361.829 160.917 362.903 151.419 369.548C144.574 374.337 137.785 385.187 143.438 393.207ZM348.813 378.195C347.129 381.923 344.609 384.809 340.985 386.728C342.669 386.915 344.361 386.869 346.047 386.728C348.864 384.197 349.599 381.684 350.656 378.195L348.813 378.195Z"/>
	<path fill="#DD403A" transform="scale(2 2)" d="M143.438 393.207C147.726 393.398 151.995 393.596 156.289 393.537C155.296 398.832 144.829 395.961 143.438 393.207Z"/>
	<path fill="#DD403A" transform="scale(2 2)" d="M136.042 396.275C137.684 396.321 141.462 398.785 143.519 399.357C146.824 400.275 150.667 399.989 154.075 399.942C153.685 402.588 153.603 405.38 153.105 407.989C144.902 406.923 140.711 402.971 136.042 396.275Z"/>
	<path fill="#DD403A" transform="scale(2 2)" d="M340.985 386.728C342.669 386.915 344.361 386.869 346.047 386.728C342.661 390.086 338.492 392.113 334.539 394.672C329.334 395.39 324.061 395.675 318.824 396.069L224.426 403.164C210.445 404.194 196.323 404.688 182.415 406.498C181.687 404.033 181.558 401.336 181.364 398.783C191.625 398.64 202.434 397.364 212.738 396.645L311.261 389.97C318.779 389.479 334.583 389.3 340.985 386.728Z"/>
	<path fill="#DD403A" transform="scale(2 2)" d="M211.995 120.145C211.138 125.898 209.69 131.559 208.516 137.252L186.413 248.475C185.351 253.782 179.208 279.415 179.912 282.648C184.676 288.313 186.593 268.672 186.937 267.07L212.583 140.123C213.856 133.768 214.973 127.34 216.414 121.025C217.221 121.539 217.992 122.002 218.869 122.388C225.05 128.394 222.017 136.347 220.488 143.758L178.393 358.501C165.437 359.102 153.274 360.146 143.969 370.334C138.367 376.467 136.162 383.429 137.621 391.51C133.886 389.223 130.969 386.7 128.643 382.949C128.439 374.3 129.943 366.603 131.664 358.12L171.356 163.39C175.455 141.641 185.519 119.484 211.995 120.145Z"/>
	<path fill="#3E363F" transform="scale(2 2)" d="M179.631 287.738C180.549 287.785 181.427 287.748 182.16 288.375C182.707 289.765 172.386 345.644 169.993 347.223C164.343 346.38 168.153 338.638 169.158 333.567L176.508 297.06C177.01 294.557 177.146 289.103 179.631 287.738Z"/>
	<path fill="#697A21" transform="scale(2 2)" d="M218.869 122.388C225.601 113.835 237.461 115.972 247.127 115.21L304.622 111.216C320.627 110.029 336.628 108.703 352.647 107.74C362.345 107.157 366.2 104.174 374.341 110.346L374.341 110.346C374.581 115.303 373.078 120.424 372.192 125.286L339.608 308.546C337.203 322.113 337.866 340.441 321.532 345.004C315.97 346.558 304.24 346.315 297.954 346.693L225.668 351.563C212.613 352.573 197.54 350.707 187.258 360.369C184.397 359.42 181.356 359.024 178.393 358.501L220.488 143.758C222.017 136.347 225.05 128.394 218.869 122.388Z"/>
</svg>
