<?xml version="1.0" encoding="utf-8" ?>
<svg xmlns="http://www.w3.org/2000/svg" xmlns:xlink="http://www.w3.org/1999/xlink" width="1024" height="1024">
	<path fill="#0F0E10" transform="scale(2 2)" d="M47.9716 189.469C55.0701 189.454 50.8591 204.788 50.2218 205.388C43.7449 206.633 46.749 190.487 47.9716 189.469Z"/>
	<path fill="#0F0E10" transform="scale(2 2)" d="M47.9716 213.257C55.1787 211.624 51.0701 229.967 50.2218 231.043C44.4971 231.732 46.0739 215.441 47.9716 213.257Z"/>
	<path fill="#0F0E10" transform="scale(2 2)" d="M47.9716 237.227C53.3386 237.136 51.3889 247.66 51.3907 252.048L51.4118 283.983C51.4314 287.013 52.3527 290.781 50.2218 293.2C44.9039 293.655 46.7595 285.31 46.7565 281.107L46.7504 247.429C46.7519 244.133 45.8369 239.987 47.9716 237.227Z"/>
	<path fill="#DD403A" transform="scale(2 2)" d="M457.187 160.722C468.766 174.678 465.547 186.124 465.532 203.468L465.542 338.084C465.546 342.33 465.711 346.649 465.335 350.879C464.259 362.985 453.632 376.57 440.844 377.722C435.999 378.158 430.929 377.576 426.048 377.583L110.763 377.601C99.4292 377.603 88.1601 379.352 78.3213 372.603C76.753 371.528 75.2478 370.316 73.5335 369.481C76.1273 368.992 78.9626 370.18 81.6263 370.157L402 370.016C412.183 370.017 425.445 370.73 435.329 369.23C455.68 366.143 458.061 348.542 458.046 332.296L458.047 178.098C458.046 172.254 458.127 166.514 457.187 160.722Z"/>
	<path fill="#3E363F" transform="scale(2 2)" d="M73.5335 369.481C71.7046 368.087 69.7215 367.085 67.7125 365.986C54.9325 358.999 54.1604 348.27 54.2055 335.813L54.226 203.358C54.2235 182.912 48.7114 154.721 70.0942 143.712C80.1424 138.539 95.0092 140.433 105.999 140.434L411.339 140.428C433.893 140.417 445.531 137.738 457.187 160.722C458.127 166.514 458.046 172.254 458.047 178.098L458.046 332.296C458.061 348.542 455.68 366.143 435.329 369.23C425.445 370.73 412.183 370.017 402 370.016L81.6263 370.157C78.9626 370.18 76.1273 368.992 73.5335 369.481ZM66.7099 359.944L66.7137 191.132C66.7096 185.675 65.9654 179.006 67.0995 173.737C72.004 150.946 94.9005 153.934 112.36 153.954L427.191 153.964C431.79 153.952 436.799 153.211 441.334 153.845C444.454 154.282 446.935 156.445 449.972 156.955C442.582 144.258 432.704 144.806 420.344 144.877L112.225 144.882C102.434 144.882 79.8129 142.99 71.4748 147.91C57.6948 156.041 58.608 167.044 58.6212 181.006L58.6405 321.627C58.6349 334.531 55.6021 350.524 66.7099 359.944Z"/>
	<path fill="#99A937" transform="scale(2 2)" d="M66.7099 359.944L66.7137 191.132C66.7096 185.675 65.9654 179.006 67.0995 173.737C72.004 150.946 94.9005 153.934 112.36 153.954L427.191 153.964C431.79 153.952 436.799 153.211 441.334 153.845C444.454 154.282 446.935 156.445 449.972 156.955C454.496 164.072 453.484 172.158 453.474 180.188L453.486 335.926C453.67 372.279 426.308 365.399 398.73 365.395L90.4712 365.415C82.1437 365.495 73.2465 366.32 66.7099 359.944Z"/>
	<path fill="#0F0E10" transform="scale(2 2)" d="M393.947 282.704C399.874 282.172 410.171 282.488 416.279 282.666C418.445 282.729 418.515 283.187 417.294 284.924C413.021 284.934 392.606 286.4 393.397 283.027L393.947 282.704Z"/>
	<path fill="white" transform="scale(2 2)" d="M249.559 218.042L250.041 218.131C259.922 219.908 255.458 226.172 251.077 226.441C246.326 226.733 208.171 226.925 205.796 226.239C203.859 225.679 202.629 223.175 202.546 221.264C206.277 221.713 212.544 221.27 216.517 221.271L236.439 221.278C241.617 221.28 246.198 222.749 249.559 218.042Z"/>
	<path fill="white" transform="scale(2 2)" d="M403.115 185.588C404.866 185.967 408.884 192.151 409.862 193.685C431.047 226.909 397.522 266.529 361.652 257.978C356.752 256.81 337.113 246.639 336.853 241.27C345.374 248.948 356.09 254.486 367.861 254.258C379.704 265.865 425.29 242.261 410.164 204.371C409.546 197.73 406.815 191.07 403.115 185.588Z"/>
	<path fill="#DD403A" transform="scale(2 2)" d="M410.164 204.371C425.29 242.261 379.704 265.865 367.861 254.258C380.128 253.069 387.885 250.584 396.949 241.715C408.87 230.052 409.996 219.534 410.164 204.371Z"/>
	<path fill="white" transform="scale(2 2)" d="M280.467 198.333C285.197 200.31 288.062 205.167 282.823 207.273C279.672 208.54 237.521 207.621 230.789 207.622L213.534 207.628C210.726 207.632 207.812 207.855 205.02 207.619C203.946 205.899 203.16 204.135 202.546 202.201L253.372 202.193C260.733 202.187 277.277 205.154 280.467 198.333Z"/>
	<path fill="white" transform="scale(2 2)" d="M280.467 177.961C288.84 180.306 286.869 187.086 279.554 187.276C263.827 187.683 247.981 187.264 232.242 187.272L213.415 187.285C208.343 187.29 202.288 189.047 200.492 182.697C200.394 182.354 200.339 182.028 200.499 181.692C204.398 182.88 265.381 181.8 271.657 181.655C275.861 181.557 278.503 182.188 280.467 177.961Z"/>
	<path fill="#0F0E10" transform="scale(2 2)" d="M202.546 221.264C197.288 218.524 198.099 212.001 204.138 211.201C209.513 210.489 217.233 210.994 222.892 210.99L236.509 210.987C241.903 210.993 251.233 209.546 249.559 218.042C246.198 222.749 241.617 221.28 236.439 221.278L216.517 221.271C212.544 221.27 206.277 221.713 202.546 221.264Z"/>
	<path fill="#9498C2" transform="scale(2 2)" d="M203.548 215.227C209.601 215.084 241.05 214.443 245.101 215.58C246.182 216.652 245.762 217.736 244.957 218.914C242.77 219.142 240.496 218.957 238.298 218.936L213.005 218.914C210.036 218.911 200.719 220.609 203.548 215.227Z"/>
	<path fill="#3E363F" transform="scale(2 2)" d="M110.096 226.524C108.328 234.322 101.402 222.543 101.946 206.438C103.209 169.04 149.215 153.023 176.349 182.331C180.552 187.359 183.855 191.619 184.515 198.333C183.95 198.774 183.298 199.21 182.78 199.7C181.094 198.924 175.228 185.711 169.441 181.692C164.703 176.093 157.137 173.875 150.38 171.817C130.872 168.997 109.857 181.437 106.839 201.794C105.764 209.048 106.484 220.015 110.096 226.524Z"/>
	<path fill="#0F0E10" transform="scale(2 2)" d="M200.499 181.692C194.569 169.785 209.973 171.817 216.746 171.813L260.998 171.812C268.075 171.815 279.585 169.204 280.467 177.961C278.503 182.188 275.861 181.557 271.657 181.655C265.381 181.8 204.398 182.88 200.499 181.692Z"/>
	<path fill="#3E363F" transform="scale(2 2)" d="M252.331 175.959C256.664 175.957 273.858 175.335 276.408 176.403C277.043 177.871 276.535 178.854 275.189 179.454C272.384 179.298 269.521 179.433 266.71 179.437L250.441 179.454C250.201 177.188 249.765 176.222 252.331 175.959Z"/>
	<path fill="#DD403A" transform="scale(2 2)" d="M206.681 175.959C211.363 175.956 244.878 175.511 246.464 176.265C248.876 177.414 246.017 179.391 244.063 179.454L217.761 179.466C213.137 179.476 207.715 180.043 203.225 179.117C201.119 176.773 204.767 175.9 206.681 175.959Z"/>
	<path fill="#0F0E10" transform="scale(2 2)" d="M202.546 202.201C198.608 201.459 198.32 196.179 200.666 193.66C203.96 190.123 217.446 191.53 222.016 191.527L265.031 191.529C271.388 191.532 280.397 189.377 280.467 198.333C277.277 205.154 260.733 202.187 253.372 202.193L202.546 202.201Z"/>
	<path fill="#9498C2" transform="scale(2 2)" d="M205.02 196.028L265.827 196.022C269.29 196.024 272.78 195.907 276.222 196.345C277.48 197.728 276.66 199.116 275.189 199.7C270.12 199.881 264.992 199.714 259.917 199.712L213.009 199.685C210.499 199.686 207.787 199.949 205.309 199.691C202.513 199.401 202.44 196.553 205.02 196.028Z"/>
	<path fill="white" transform="scale(2 2)" d="M150.38 171.817C157.137 173.875 164.703 176.093 169.441 181.692C168.068 181.429 167.161 180.455 165.981 179.801C137.355 163.941 99.8161 201.285 118.604 233.123C135.277 261.377 176.317 250.113 183.761 219.825C185.082 214.453 186.003 204.5 182.78 199.7C183.298 199.21 183.95 198.774 184.515 198.333C183.855 191.619 180.552 187.359 176.349 182.331C177.936 182.475 181.03 186.396 182.041 187.614C196.009 204.443 192.339 230.644 175.566 244.549C159.551 257.826 136.851 256.433 121.692 242.55C120.329 241.302 110.792 232.05 110.096 231.043L112.115 228.888C111.805 228.095 111.516 227.288 111.143 226.524C111.014 224.294 109.967 221.679 109.483 219.463C104.76 197.823 119.045 177.74 140.38 173.213C143.68 172.513 147.09 172.582 150.38 171.817Z"/>
	<path fill="white" transform="scale(2 2)" d="M295.433 270.419C299.231 271.553 301.162 273.097 301.298 277.089C301.704 288.969 301.293 301 301.289 312.895L301.29 332.832C301.297 338.459 302.852 346.333 296.695 349.403C291.082 352.2 262.037 350.866 254.906 350.864L137.051 350.865C126.712 350.864 116.32 351.082 105.986 350.791C101.883 350.676 100.782 349.32 100.411 345.548C113.428 345.924 126.569 345.543 139.601 345.542L279.705 345.559C293.498 345.558 295.454 345.518 295.448 331.151L295.435 286.955C295.431 281.45 295.283 275.92 295.433 270.419Z"/>
	<path fill="#0F0E10" transform="scale(2 2)" d="M348.806 344.006C344.244 343.582 336.032 343.925 331.416 344.072C317.382 344.517 318.486 343.04 318.52 329.093L318.492 297.548C318.471 292.97 317.29 283.45 323.852 282.788C327.081 282.463 345.172 282.363 347.848 282.864C354.13 284.04 351.779 297.158 351.764 301.67L351.748 328.18C351.735 333.216 351.465 338.358 351.758 343.377C350.949 343.913 350.257 343.897 349.311 343.966L348.806 344.006Z"/>
	<path fill="#99A937" transform="scale(2 2)" d="M321.384 286.527C322.93 284.619 346.986 282.541 349.44 286.527L331.361 286.542C328.038 286.55 324.703 286.697 321.384 286.527Z"/>
	<path fill="white" transform="scale(2 2)" d="M349.44 286.527C350.907 289.355 349.475 297.628 349.446 301.083L349.44 342.217L333.318 342.225C329.674 342.228 321.297 343.717 320.615 338.575C319.647 331.267 320.5 288.426 321.384 286.527C324.703 286.697 328.038 286.55 331.361 286.542L349.44 286.527Z"/>
	<path fill="#F4D678" transform="scale(2 2)" d="M330.01 291.952L345.834 291.952C345.485 295.076 345.81 298.12 345.808 301.246L345.86 326.179C345.892 331.245 347.946 339.77 341.336 340.195C337.584 340.212 329.903 340.8 326.641 339.658C324.74 336.562 325.722 322.669 325.723 318.32L325.727 304.569C325.73 300.403 325.513 296.045 326.359 291.952L330.01 291.952Z"/>
	<path fill="white" transform="scale(2 2)" d="M420.486 286.527L422.596 286.527C429.915 287.352 427.779 297.88 427.78 303.143L427.769 337.222C427.764 341.661 429.303 348.421 423.213 348.958C420.013 349.241 398.826 349.272 396.558 348.728C389.476 347.028 391.848 318.73 391.836 313.001L391.813 302.712C391.809 301.148 391.659 299.414 391.84 297.869C390.528 284.877 392.817 286.51 404.597 286.51L420.486 286.527Z"/>
	<path fill="#EFB885" transform="scale(2 2)" d="M420.486 286.527L422.596 286.527C422.547 287.99 422.264 289.902 422.596 291.307L421.411 291.307C421.408 289.86 420.761 287.988 420.486 286.527Z"/>
	<path fill="#766361" transform="scale(2 2)" d="M422.596 291.307C423.088 293.79 422.603 301.962 422.6 304.982L422.596 344.006C421.532 344.01 420.348 344.125 419.299 344.006L420.056 343.844C420.544 343.305 420.439 342.929 420.486 342.217C419.465 326.265 420.855 308.272 420.486 291.952L421.411 291.307L422.596 291.307Z"/>
	<path fill="#DD403A" transform="scale(2 2)" d="M395.918 291.952L420.486 291.952C420.855 308.272 419.465 326.265 420.486 342.217C420.439 342.929 420.544 343.305 420.056 343.844L419.299 344.006C414.771 343.725 403.057 345.551 399.907 342.217C393.012 342.797 395.088 335.849 395.094 330.594L395.123 311.736C395.138 308.488 395.38 305.078 395.153 301.846L395.116 301.358C395.611 298.249 395.379 295.08 395.918 291.952Z"/>
	<path fill="#0F0E10" transform="scale(2 2)" d="M399.907 342.217C401.237 341.796 417.791 342.216 420.486 342.217C420.439 342.929 420.544 343.305 420.056 343.844L419.299 344.006C414.771 343.725 403.057 345.551 399.907 342.217Z"/>
	<path fill="white" transform="scale(2 2)" d="M351.758 343.377C352.161 343.067 352.567 342.772 352.987 342.485C356.883 333.66 350.441 282.532 356.604 280.35C359.311 279.392 382.606 279.245 387.103 280.797C388.668 282.191 387.669 293.108 387.667 295.999L387.669 333.312C387.668 338.253 389.36 344.515 387.688 348.718L352.874 348.623C347.608 348.631 330.845 349.954 326.773 347.221L326.481 346.641L326.653 346.369C333.982 345.022 341.535 346.792 348.806 344.006L349.311 343.966C350.257 343.897 350.949 343.913 351.758 343.377Z"/>
	<path fill="#0F0E10" transform="scale(2 2)" d="M358.739 284.924C357.563 280.587 380.767 282.702 385.28 282.704C383.636 284.842 381.992 284.513 379.669 284.924L358.739 284.924Z"/>
	<path fill="#3E363F" transform="scale(2 2)" d="M385.28 282.704C385.716 284.447 385.283 295.029 385.282 297.676L385.28 344.006L368.952 344.006C366.232 344.07 360.363 345.17 358.739 342.217C359.013 325.463 360.043 301.372 358.739 284.924L379.669 284.924C381.992 284.513 383.636 284.842 385.28 282.704Z"/>
	<path fill="#0F0E10" transform="scale(2 2)" d="M358.739 342.217C359.484 342.145 360.136 342.087 360.882 342.217L361.159 342.25C365.21 342.697 369.452 342.479 373.534 342.644C372.089 342.699 370.65 342.74 369.214 342.916L369.148 343.093C371.067 343.595 373.457 342.921 375.211 343.598C373.132 343.656 371 343.621 368.952 344.006C366.232 344.07 360.363 345.17 358.739 342.217Z"/>
	<path fill="#DD403A" transform="scale(2 2)" d="M182.78 199.7C186.003 204.5 185.082 214.453 183.761 219.825C176.317 250.113 135.277 261.377 118.604 233.123C99.8161 201.285 137.355 163.941 165.981 179.801C167.161 180.455 168.068 181.429 169.441 181.692C175.228 185.711 181.094 198.924 182.78 199.7Z"/>
	<path fill="white" transform="scale(2 2)" d="M144.081 180.796C161.614 179.738 163.974 203.993 146.562 207.619C129.638 208.114 126.046 184.554 144.081 180.796Z"/>
	<path fill="white" transform="scale(2 2)" d="M134.661 213.257C148.52 212.948 169.101 208.735 169.325 228.482C169.407 235.687 163.652 235.329 158.125 235.24L139.223 235.24C135.741 235.263 131.859 235.643 128.435 235.147C118.3 233.68 122.968 214.981 134.661 213.257Z"/>
	<path fill="#3E363F" transform="scale(2 2)" d="M336.853 241.27C335.511 239.846 334.207 238.378 332.961 236.869C298.156 194.68 363.637 136.233 403.115 185.588C406.815 191.07 409.546 197.73 410.164 204.371C409.996 219.534 408.87 230.052 396.949 241.715C387.885 250.584 380.128 253.069 367.861 254.258C356.09 254.486 345.374 248.948 336.853 241.27Z"/>
	<path fill="#99A937" transform="scale(2 2)" d="M330.01 221.264C317.92 190.037 359.168 156.305 388.42 177.961C385.87 179.12 378.514 175.218 375.323 174.645C351.61 170.383 330.263 191.125 330.023 214.387C329.999 216.658 330.207 219.011 330.01 221.264Z"/>
	<path fill="white" transform="scale(2 2)" d="M330.01 221.264C330.207 219.011 329.999 216.658 330.023 214.387C330.263 191.125 351.61 170.383 375.323 174.645C378.514 175.218 385.87 179.12 388.42 177.961C393.784 181.546 398.382 185.453 400.914 191.534C398.846 189.868 397.197 187.753 395.098 186.127C370.401 167.005 333.655 189.794 336.614 221.86C337.114 227.279 338.971 234.153 342.439 238.468C343.378 239.636 345.223 240.837 345.834 242.131L345.559 241.975C338.014 237.607 332.239 229.631 330.01 221.264Z"/>
	<path fill="#DD403A" transform="scale(2 2)" d="M345.834 242.131C345.223 240.837 343.378 239.636 342.439 238.468C338.971 234.153 337.114 227.279 336.614 221.86C333.655 189.794 370.401 167.005 395.098 186.127C397.197 187.753 398.846 189.868 400.914 191.534C404.12 194.489 405.646 203.676 405.801 207.974C406.562 228.964 390.824 249.106 368.993 249.668C363.34 249.813 349.12 247.251 345.834 242.131Z"/>
	<path fill="#3E363F" transform="scale(2 2)" d="M100.411 345.548C91.7397 344.323 92.66 335.888 92.7193 329.087L92.7318 287.342C92.7238 269.869 89.0241 263.486 108.627 263.489L254.79 263.51C265.123 263.512 276.608 262.785 286.7 263.152C290.909 263.306 295.025 265.837 295.433 270.419C295.283 275.92 295.431 281.45 295.435 286.955L295.448 331.151C295.454 345.518 293.498 345.558 279.705 345.559L139.601 345.542C126.569 345.543 113.428 345.924 100.411 345.548Z"/>
	<path fill="white" transform="scale(2 2)" d="M135.785 341.236C136.551 333.205 137.942 325.987 142.57 319.163C154.806 301.119 177.646 296.848 195.574 309.108C192.765 309.082 190.215 307.433 187.458 307.025C176.228 305.362 164.606 308.226 156.027 315.78C149.641 321.403 142.325 332.205 144.081 341.236L135.785 341.236Z"/>
	<path fill="#99A937" transform="scale(2 2)" d="M101.461 341.236C98.0086 340.506 97.3568 339.154 97.2616 335.907C96.9236 324.377 97.2517 312.738 97.2565 301.194L97.2506 283.517C97.1653 266.045 96.4031 267.791 114.994 267.794L273.554 267.804C279.46 267.82 289.561 265.632 291.076 271.897L126.863 271.901C110.575 271.9 101.414 266.873 101.441 286.573L101.461 341.236Z"/>
	<path fill="#DD403A" transform="scale(2 2)" d="M144.081 341.236C142.325 332.205 149.641 321.403 156.027 315.78C164.606 308.226 176.228 305.362 187.458 307.025C190.215 307.433 192.765 309.082 195.574 309.108C196.787 309.813 198.075 310.476 199.241 311.252C199.943 312.203 201.412 313.032 202.546 313.29C203.469 313.02 204.083 313.116 205.02 313.29C206.462 311.069 207.791 313.495 209.161 314.841C216.359 321.916 219.983 331.257 220.382 341.236C219.434 341.313 218.479 341.262 217.529 341.236L144.081 341.236Z"/>
	<path fill="white" transform="scale(2 2)" d="M214 341.236C213.973 339.193 213.717 337.135 214 335.103C215.647 337.099 216.646 338.797 217.529 341.236C216.36 341.185 215.171 341.233 214 341.236Z"/>
	<path fill="#3E363F" transform="scale(2 2)" d="M202.546 313.29C203.469 313.02 204.083 313.116 205.02 313.29C209.174 317.739 217.009 328.635 214 335.103C207.053 335.097 210.209 328.005 205.426 320.851C203.79 318.404 200.397 316.358 202.546 313.29Z"/>
	<path fill="white" transform="scale(2 2)" d="M101.461 341.236L101.441 286.573C101.414 266.873 110.575 271.9 126.863 271.901L291.076 271.897C291.242 279.214 291.951 337.989 290.035 340.228C288.529 341.987 266.074 341.238 263.158 341.237L220.382 341.236C219.983 331.257 216.359 321.916 209.161 314.841C207.791 313.495 206.462 311.069 205.02 313.29C204.083 313.116 203.469 313.02 202.546 313.29C201.412 313.032 199.943 312.203 199.241 311.252C201.787 310.282 213.478 296.495 217.529 293.2C217.508 295.705 217.079 304.753 218.603 306.292C225.016 312.771 221.614 286.535 220.307 285.993C219.592 285.697 196.769 283.181 201.649 289.097C202.992 290.724 211.318 290.021 213.572 290.011C209.088 295.835 203.163 300.543 199.241 306.781C192.837 300.415 182.745 297.421 173.865 297.443C148.894 297.505 132.461 317.368 131.308 341.236L101.461 341.236Z"/>
</svg>
