<?xml version="1.0" encoding="utf-8" ?>
<svg xmlns="http://www.w3.org/2000/svg" xmlns:xlink="http://www.w3.org/1999/xlink" width="1024" height="1024">
	<path fill="#9AA03E" transform="scale(2 2)" d="M395.492 302.071C403.729 307.969 393.365 325.946 388.953 322.791C385.949 320.011 383.465 318.969 387.16 315.38C391.843 310.833 393.52 308.277 395.492 302.071Z"/>
	<path fill="#9AA03E" transform="scale(2 2)" d="M378.842 227.977C381.205 229.43 382.821 230.67 384.25 233.116C384.35 237.942 382.754 243.098 381.746 247.803L375.418 276.251C373.573 274.011 371.398 272.009 369.506 269.789C372.989 256.741 376.435 241.193 378.842 227.977Z"/>
	<path fill="#3E363F" transform="scale(2 2)" d="M394.028 334.872C399.679 337.781 400.32 346.557 397.945 351.678C395.955 355.969 382.744 368.124 378.706 372.197L340.708 410.202C331.337 419.548 321.826 435.475 307.429 429.232C304.451 427.595 302.335 425.511 300.608 422.598C314.767 425.773 320.877 415.787 329.772 406.875L379.862 356.698C387.397 349.006 392.664 346.202 394.028 334.872Z"/>
	<path fill="#3E363F" transform="scale(2 2)" d="M243.368 120.564C252.046 105.989 268.013 88.053 284.954 83.7396C292.734 81.7584 299.759 83.9048 301.537 92.441C304.931 108.74 285.378 139.046 275.555 153.224C277.374 159.704 288.004 205.591 287.751 209.596C287.317 216.491 279.784 233.918 277.25 240.855L266.184 271.466C264.258 276.707 262.134 281.88 260.312 287.157L243.673 334.8C241.786 340.039 239.853 354.208 233.173 352.557C233.517 349.396 235.035 346.116 236.071 343.113C246.53 312.778 257.215 282.476 268.253 252.348L275.665 231.936C278.794 223.541 284.234 214.475 282.586 205.232C280.739 194.871 277.874 184.642 275.705 174.346L271.067 152.987C270.175 148.935 269.497 144.399 268.004 140.523C265.144 138.982 261.717 137.984 258.661 136.849L243.368 131.106C241.296 134.718 238.519 141.465 237.631 145.571L236.534 148.623C256.864 158.146 244.585 187.867 221.32 178.58C206.91 168.694 211.645 146.319 232.668 147.398C233.725 141.48 236.851 134.829 238.975 129.151C239.671 127.753 240.372 126.491 241.297 125.23C237.037 122.407 231.336 120.236 226.288 119.362C222.06 120.704 197.324 139.895 191.672 144.004L175.914 155.407C160.099 166.696 164.323 164.597 157.984 183.216L124.134 282.335C122.243 287.954 117.57 299.4 117.26 304.572C116.465 317.803 132.222 320.299 141.763 323.604L218.519 350.62C225.705 353.21 233.805 359.177 241.297 354.789C243.721 358.134 246.907 361.009 249.864 363.879L261.013 374.694C270.107 383.639 279.118 392.685 288.395 401.439C295.068 407.736 303.184 419.476 312.188 411.331C317.068 406.916 321.569 401.944 326.228 397.291L376.216 346.94C395.081 328.096 378.514 332.547 375.489 321.037C373.404 313.1 381.941 309.436 385.131 303.672C389.963 294.942 380.324 288.283 375.179 282.812C366.479 273.561 299.441 202.185 291.001 198C289.888 194.819 288.981 191.582 287.957 188.373C293.676 193.594 312.959 210.902 316.34 216.12L352.06 216.106C362.522 216.103 377.978 212.99 378.842 227.977C376.435 241.193 372.989 256.741 369.506 269.789C371.398 272.009 373.573 274.011 375.418 276.251C381.709 283.829 391.897 289.673 390.734 300.774C389.729 310.376 375.5 314.696 381.861 322.632C385.389 327.033 389.856 329.072 389.393 335.788C388.828 343.972 379.751 349.81 374.485 355.114L324.078 405.833C308.374 421.691 305.307 424.322 289.598 409.038L237.631 358.683C231.123 360.33 227 358.301 220.964 356.136L137.416 326.82C132.566 325.116 126.793 323.844 122.361 321.208C105.077 310.927 115.965 292.584 120.797 278.331L153.19 183.27C161.027 160.474 156.182 163.987 175.364 150.218L217.764 119.374C220.696 117.286 222.842 115.645 226.288 114.591C232.192 115.961 237.683 118.518 243.368 120.564ZM289.432 87.6024C274.986 88.8113 253.873 108.654 248.075 122.525C254.079 124.532 267.172 128.06 270.437 133.21C272.629 137.682 272.823 142.749 274.489 147.398C277.481 141.595 313.561 86.5316 289.432 87.6024ZM226.288 151.816C209.312 158.58 219.652 183.064 236.534 174.409C243.753 168.731 244.822 157.864 235.701 153.224C233.655 158.931 229.454 157.614 231.492 151.816C229.748 151.749 228.03 151.674 226.288 151.816ZM321.567 220.494C323.359 222.567 325.143 224.875 327.425 226.424C340.007 224.935 360.88 226.676 374.397 226.424C371.861 217.863 360.298 220.478 353.599 220.48L321.567 220.494ZM245.636 126.217C244.799 127.803 244.1 129.468 243.368 131.106L258.661 136.849C261.717 137.984 265.144 138.982 268.004 140.523C266.025 130.095 255.245 129.739 245.636 126.217Z"/>
	<path fill="#9AA03E" transform="scale(2 2)" d="M327.425 226.424C340.007 224.935 360.88 226.676 374.397 226.424C372.629 237.939 368.619 254.593 365.694 266.059C352.488 253.307 340.976 238.85 327.425 226.424Z"/>
	<path fill="#9AA03E" transform="scale(2 2)" d="M291.001 198C299.441 202.185 366.479 273.561 375.179 282.812C380.324 288.283 389.963 294.942 385.131 303.672C381.941 309.436 373.404 313.1 375.489 321.037C378.514 332.547 395.081 328.096 376.216 346.94L326.228 397.291C321.569 401.944 317.068 406.916 312.188 411.331C303.184 419.476 295.068 407.736 288.395 401.439C279.118 392.685 270.107 383.639 261.013 374.694L249.864 363.879C246.907 361.009 243.721 358.134 241.297 354.789C245.025 348.76 247.948 337.469 250.509 330.442L286.736 229.182C291.969 214.972 293.742 213.535 291.001 198ZM318.391 340.194C334.369 356.965 355.648 341.581 347.207 323.92C346.305 320.752 342.923 317.738 340.623 315.585C340.117 316.22 339.625 316.925 339.025 317.47C334.103 315.439 330.641 313.176 325.121 315.511C318.939 318.125 314.62 326.257 317.625 332.684C319.047 335.724 321.256 337.475 318.391 340.194Z"/>
	<path fill="#3E363F" transform="scale(2 2)" d="M271.904 304.544C268.138 304.258 266.976 300.326 266.205 297.118C262.348 281.07 286.237 269.623 287.957 279.258C285.962 279.865 283.928 279.928 281.886 280.266C274.384 281.51 268.159 289.47 270.669 297.11C271.596 299.931 273.964 301.753 271.904 304.544Z"/>
	<path fill="#3E363F" transform="scale(2 2)" d="M318.391 340.194L318.018 339.968C307.171 333.534 312.982 311.973 327.579 310.233C331.516 309.764 340.121 310.282 340.623 315.585C340.117 316.22 339.625 316.925 339.025 317.47C334.103 315.439 330.641 313.176 325.121 315.511C318.939 318.125 314.62 326.257 317.625 332.684C319.047 335.724 321.256 337.475 318.391 340.194Z"/>
	<path fill="#3E363F" transform="scale(2 2)" d="M291.001 350.46C287.392 349.477 287.532 348.055 288.641 345.062C294.15 330.189 300.531 315.662 306.427 300.945L312.476 285.962C313.847 282.53 315.635 272.436 319.928 279.258C310.862 302.636 301.285 327.632 291.001 350.46Z"/>
	<path fill="white" transform="scale(2 2)" d="M319.928 279.258C321.762 277.437 325.08 279.641 324.78 281.988C324.43 284.733 322.786 287.884 321.753 290.464L302.101 339.019C301.412 340.751 294.768 360.669 291.001 350.46C301.285 327.632 310.862 302.636 319.928 279.258Z"/>
	<path fill="white" transform="scale(2 2)" d="M287.957 279.258C291.422 279.925 296.418 283.529 298.269 286.302C309.679 303.389 284.141 322.335 271.904 304.544C273.964 301.753 271.596 299.931 270.669 297.11C268.159 289.47 274.384 281.51 281.886 280.266C283.928 279.928 285.962 279.865 287.957 279.258Z"/>
	<path fill="#3E363F" transform="scale(2 2)" d="M287.957 286.02L288.134 285.712C291.771 279.471 294.554 289.18 294.718 292.254C295.541 307.595 273.275 308.918 277.415 300.531C288.88 303.348 293.721 295.346 287.957 286.02Z"/>
	<path fill="#9AA03E" transform="scale(2 2)" d="M285.345 285.054L287.957 286.02C293.721 295.346 288.88 303.348 277.415 300.531C270.469 293.724 278.549 286.732 285.345 285.054Z"/>
	<path fill="white" transform="scale(2 2)" d="M318.391 340.194C321.256 337.475 319.047 335.724 317.625 332.684C314.62 326.257 318.939 318.125 325.121 315.511C330.641 313.176 334.103 315.439 339.025 317.47C339.625 316.925 340.117 316.22 340.623 315.585C342.923 317.738 346.305 320.752 347.207 323.92C355.648 341.581 334.369 356.965 318.391 340.194ZM340.623 315.585C340.117 316.22 339.625 316.925 339.025 317.47C336.839 319.31 339.08 320.065 340.623 321.461C343.659 323.612 342.988 329.502 342.666 332.676C345.061 331.617 341.803 322.411 347.278 326.538C347.27 325.664 347.244 324.793 347.207 323.92C346.305 320.752 342.923 317.738 340.623 315.585Z"/>
	<path fill="#3E363F" transform="scale(2 2)" d="M340.623 321.461L340.623 321.461C343.659 323.612 342.988 329.502 342.666 332.676C337.953 344.512 322.794 344.23 325.037 337.187C348.109 340.788 332.576 321.723 340.623 321.461Z"/>
	<path fill="#9AA03E" transform="scale(2 2)" d="M325.037 337.187C320.479 332.754 321.75 326.443 326.358 322.539C331.314 318.341 335.217 320.99 340.623 321.461C332.576 321.723 348.109 340.788 325.037 337.187Z"/>
	<path fill="#DD403A" transform="scale(2 2)" d="M228.2 125.23C231.794 126.572 235.329 127.949 238.975 129.151C236.851 134.829 233.725 141.48 232.668 147.398C211.645 146.319 206.91 168.694 221.32 178.58C244.585 187.867 256.864 158.146 236.534 148.623L237.631 145.571C238.519 141.465 241.296 134.718 243.368 131.106L258.661 136.849C261.717 137.984 265.144 138.982 268.004 140.523C269.497 144.399 270.175 148.935 271.067 152.987L275.705 174.346C277.874 184.642 280.739 194.871 282.586 205.232C284.234 214.475 278.794 223.541 275.665 231.936L268.253 252.348C257.215 282.476 246.53 312.778 236.071 343.113C235.035 346.116 233.517 349.396 233.173 352.557C226.548 350.48 220.086 347.917 213.548 345.584L141.128 320.33C117.751 312.177 120.347 312.251 127.892 291.359L154.861 212.997C159.535 199.481 163.895 180.801 169.429 168.301L169.624 167.868C171.02 164.731 181.763 158.478 184.757 156.372C197.414 147.469 215.176 132.061 228.2 125.23ZM171.257 242.242C183.776 259.009 214.833 235.765 193.44 218.456C174.577 209.123 160.348 225.686 171.257 242.242ZM229.12 226.424C219.154 234.25 210.22 243.448 200.808 251.917L182.628 268.497C178.882 271.889 174.376 275.297 171.257 279.258C172.649 282.179 174.16 283.249 176.638 281.08C187.055 271.963 197.043 262.331 207.394 253.133C213.254 247.926 228.422 235.847 232.668 229.843C231.926 227.963 231.149 227.059 229.12 226.424ZM237.631 145.571L236.534 148.623C256.864 158.146 244.585 187.867 221.32 178.58C222.075 181.1 227.59 183.871 229.971 184.611C249.866 190.793 263.696 153.604 237.631 145.571Z"/>
	<path fill="#3E363F" transform="scale(2 2)" d="M171.257 242.242L170.943 242.33C167.755 241.755 164.604 235.949 164.104 233.144C160.137 210.915 191.873 204.978 193.44 218.456C174.577 209.123 160.348 225.686 171.257 242.242Z"/>
	<path fill="#3E363F" transform="scale(2 2)" d="M201.598 288.186C193.5 286.578 195.827 265.492 212.083 260.876C215.915 259.788 227.325 260.451 222.58 266.059C214.346 262.619 205.459 266.609 202.421 275.147C200.405 280.812 204.778 284.486 201.598 288.186Z"/>
	<path fill="#3E363F" transform="scale(2 2)" d="M171.257 279.258C165.046 275.369 177.537 266.971 180.793 264.049L197.275 249.132C205.071 241.939 216.948 229.537 225.483 223.737C227.655 222.261 228.441 224.755 229.12 226.424C219.154 234.25 210.22 243.448 200.808 251.917L182.628 268.497C178.882 271.889 174.376 275.297 171.257 279.258Z"/>
	<path fill="#3E363F" transform="scale(2 2)" d="M190.685 222.519C204.537 232.785 183.239 251.504 174.503 238.318C177.225 234.195 186.58 243.474 190.685 231.099C190.171 228.871 189.244 226.902 188.287 224.836C189.032 223.922 189.679 223.171 190.685 222.519Z"/>
	<path fill="#DD403A" transform="scale(2 2)" d="M174.503 238.318C167.705 229.251 178.231 216.217 190.685 222.519C189.679 223.171 189.032 223.922 188.287 224.836C189.244 226.902 190.171 228.871 190.685 231.099C186.58 243.474 177.225 234.195 174.503 238.318Z"/>
	<path fill="white" transform="scale(2 2)" d="M201.598 288.186C204.778 284.486 200.405 280.812 202.421 275.147C205.459 266.609 214.346 262.619 222.58 266.059C246.113 277.696 229.335 305.982 211.215 296.592C207.251 294.537 205.184 290.519 201.598 288.186Z"/>
	<path fill="#3E363F" transform="scale(2 2)" d="M209.489 288.186C213.089 286.531 216.724 290.098 220.697 287.775C227.318 283.903 221.77 276.601 225.847 274.742C238.99 285.393 212.59 301.243 209.489 288.186Z"/>
	<path fill="#DD403A" transform="scale(2 2)" d="M209.489 288.186C202.433 272.204 217.079 265.138 225.847 274.742C221.77 276.601 227.318 283.903 220.697 287.775C216.724 290.098 213.089 286.531 209.489 288.186Z"/>
</svg>
