<?xml version="1.0" encoding="utf-8" ?>
<svg xmlns="http://www.w3.org/2000/svg" xmlns:xlink="http://www.w3.org/1999/xlink" width="1024" height="1024">
	<path fill="#DD403A" transform="scale(2 2)" d="M436.117 399.73C444.714 413.065 438.231 420.429 428.76 429.639C423.15 435.094 417.398 440.203 408.783 438.18C407.066 437.777 405.244 436.791 403.553 436.578C409.554 435.429 411.843 435.16 416.549 430.771C429.11 419.055 435.497 416.597 436.117 399.73Z"/>
	<path fill="#3E363F" transform="scale(2 2)" d="M163.926 310.178C101.85 293.892 62.1675 230.777 74.7139 167.769C94.6875 67.4609 223.962 38.847 286.596 117.012C291.179 122.731 294.837 128.929 298.877 135.016C301.637 137.939 303.62 142.162 305.411 145.74C324.966 184.8 322.053 236.882 295.19 271.81C299.699 276.649 306.424 284.063 311.669 287.765C313.315 285.286 315.264 282.938 318.206 285.238C338.574 301.16 359.395 322.282 378.831 339.706L414.73 372.049C423.337 379.901 434.656 387.145 436.117 399.73C435.497 416.597 429.11 419.055 416.549 430.771C411.843 435.16 409.554 435.429 403.553 436.578C387.06 436.146 381.867 426.619 371.892 415.534L307.452 345.49C300.169 337.618 292.637 329.83 285.678 321.676C282.019 317.387 283.029 316.04 286.943 312.421C281.465 306.789 275.938 301.187 270.316 295.699C247.893 309.33 229.564 316.477 202.421 316.477C195.658 316.477 188.69 316.351 182.055 314.917C176.042 313.67 169.596 312.585 163.926 310.178ZM121.705 282.993C122.383 284.167 124.498 285.536 125.599 286.348C175.126 322.912 248.567 312.512 285.087 262.681C316.893 219.281 314.306 158.174 279.954 117.215C277.385 114.153 274.484 110.534 271.258 108.169C269.187 108.216 262.574 102.251 260.431 100.822C226.63 78.2904 179.57 75.6907 143.588 94.2719C76.5964 128.867 62.8737 222.869 115.281 276.28C117.399 278.439 119.907 280.569 121.705 282.993ZM121.705 282.993C119.907 280.569 117.399 278.439 115.281 276.28C62.8737 222.869 76.5964 128.867 143.588 94.2719C179.57 75.6907 226.63 78.2904 260.431 100.822C262.574 102.251 269.187 108.216 271.258 108.169C249.986 87.9685 219.729 76.2565 190.395 77.0009C84.077 79.699 40.2006 206.575 114.272 276.572C116.477 278.656 119.097 281.467 121.705 282.993ZM315.714 290.157C307.621 297.324 296.448 309.609 288.943 317.756C294.026 324.083 299.976 329.949 305.441 335.959L375.372 411.894C381.112 418.25 388.159 429.227 397.215 430.913C395.733 428.748 393.482 426.716 391.732 424.738L376.646 407.944C371.014 401.716 365.46 395.396 359.733 389.257L303.166 329.606C300.554 326.91 297.123 324.042 295.19 320.857C298.222 317.311 301.661 313.996 304.905 310.638L320.714 294.099C319.088 292.709 317.471 291.378 315.714 290.157ZM274.739 292.554C279.798 298.238 285.335 303.546 290.776 308.862C291.35 308.404 291.951 307.979 292.432 307.422C289.464 304.407 279.017 292.43 274.739 292.554Z"/>
	<path fill="#98C032" transform="scale(2 2)" d="M265.024 290.157C266.843 291.953 268.575 293.829 270.316 295.699C247.893 309.33 229.564 316.477 202.421 316.477C195.658 316.477 188.69 316.351 182.055 314.917C176.042 313.67 169.596 312.585 163.926 310.178C170.061 311.039 176.93 312.295 183.127 313.317C215.945 315.226 238.498 307.547 265.024 290.157Z"/>
	<path fill="#98C032" transform="scale(2 2)" d="M286.038 270.492C293.128 277.328 300.661 284.029 307.304 291.296C302.76 296.19 296.368 302.299 292.432 307.422C289.464 304.407 279.017 292.43 274.739 292.554C273.118 291.024 271.555 289.47 269.718 288.198L269.102 287.765C273.146 282.496 281.094 276.047 286.038 270.492Z"/>
	<path fill="#98C032" transform="scale(2 2)" d="M298.877 135.016C301.637 137.939 303.62 142.162 305.411 145.74C324.966 184.8 322.053 236.882 295.19 271.81C293.048 270.177 291.055 268.222 288.943 266.524C311.796 234.311 318.444 194.274 307.172 156.163C304.92 148.546 301.367 142.552 299.021 135.458L298.877 135.016Z"/>
	<path fill="#DD403A" transform="scale(2 2)" d="M320.714 294.099C331.674 303.149 342.062 313.026 352.553 322.616L413.421 377.644C422.344 385.764 439.29 398.819 427.588 412.706C425.496 415.19 412.301 427.922 410.105 429.279C406.385 431.578 401.409 432.104 397.215 430.913C395.733 428.748 393.482 426.716 391.732 424.738L376.646 407.944C371.014 401.716 365.46 395.396 359.733 389.257L303.166 329.606C300.554 326.91 297.123 324.042 295.19 320.857C298.222 317.311 301.661 313.996 304.905 310.638L320.714 294.099Z"/>
	<path fill="#98C032" transform="scale(2 2)" d="M121.705 282.993C119.907 280.569 117.399 278.439 115.281 276.28C62.8737 222.869 76.5964 128.867 143.588 94.2719C179.57 75.6907 226.63 78.2904 260.431 100.822C262.574 102.251 269.187 108.216 271.258 108.169C274.484 110.534 277.385 114.153 279.954 117.215C314.306 158.174 316.893 219.281 285.087 262.681C248.567 312.512 175.126 322.912 125.599 286.348C124.498 285.536 122.383 284.167 121.705 282.993ZM147.077 273.638C184.041 290.776 223.925 290.064 255.216 260.949C289.244 229.286 294.754 176.328 267.671 138.512C264.038 133.439 259.769 128.811 255.527 124.25C234.049 106.175 214.281 97.3153 185.104 99.8457C96.8577 107.499 66.4167 224.851 140.731 269.82C142.68 270.999 145.418 272.153 147.077 273.638ZM255.527 124.25C259.769 128.811 264.038 133.439 267.671 138.512C294.754 176.328 289.244 229.286 255.216 260.949C223.925 290.064 184.041 290.776 147.077 273.638L146.939 273.842C147.99 275.271 149.987 276.046 151.49 276.906C183.256 295.069 223.413 293.181 252.934 271.225C294.475 240.33 302.248 181.364 271.185 139.837C268.834 136.694 258.917 124.734 255.527 124.25Z"/>
	<path fill="#3E363F" transform="scale(2 2)" d="M147.077 273.638C145.418 272.153 142.68 270.999 140.731 269.82C66.4167 224.851 96.8577 107.499 185.104 99.8457C214.281 97.3153 234.049 106.175 255.527 124.25C259.769 128.811 264.038 133.439 267.671 138.512C294.754 176.328 289.244 229.286 255.216 260.949C223.925 290.064 184.041 290.776 147.077 273.638ZM137.439 260.962C150.92 272.786 171.65 278.829 189.266 280.017C236.336 283.192 276.798 244.596 279.61 198.235C280.815 178.358 274.573 154.197 261.184 139.058C242.026 120.714 221.79 111.687 195.081 112.258C127.346 113.706 88.4901 191.181 126.803 247.536C129.992 252.227 133.817 256.598 137.439 260.962Z"/>
	<path fill="#DD403A" transform="scale(2 2)" d="M137.439 260.962C135.734 261.004 133.992 258.852 132.827 257.791C63.2218 194.454 130.095 84.1991 215.277 107.325C231.674 111.777 243.736 119.974 255.545 131.931C257.083 133.488 261.867 136.597 261.184 139.058C242.026 120.714 221.79 111.687 195.081 112.258C127.346 113.706 88.4901 191.181 126.803 247.536C129.992 252.227 133.817 256.598 137.439 260.962Z"/>
	<path fill="#DD403A" transform="scale(2 2)" d="M213.185 127.273C217.3 134.137 213.243 136.072 206.273 135.016C182.939 133.302 174.768 140.848 156.737 149.625C160.762 141.519 181.195 135.093 189.569 134.237C195.505 133.63 201.642 134.138 207.613 134.007C211.227 132.683 212.108 130.986 213.185 127.273Z"/>
	<path fill="#DD403A" transform="scale(2 2)" d="M122.816 210.587C125.34 210.466 127.162 212.099 129.875 211.118C136.829 208.605 134.335 201.271 134.519 195.645C134.78 187.714 137.98 172.281 141.459 164.841C143.317 170.342 140.738 174.01 139.178 179.248C136.71 187.539 136.774 208.358 135.819 210.419C133.362 215.723 126.529 214.478 122.816 210.587Z"/>
	<path fill="#3E363F" transform="scale(2 2)" d="M122.816 210.587C113.183 203.107 121.187 169.469 126.582 161.377C131.183 154.476 140.325 157.149 141.459 164.841C137.98 172.281 134.78 187.714 134.519 195.645C134.335 201.271 136.829 208.605 129.875 211.118C127.162 212.099 125.34 210.466 122.816 210.587ZM124.492 205.482C126.202 189.59 122.174 177.659 134.698 162.239C133.802 162.106 132.577 161.828 131.771 162.398C126.604 166.054 120.563 198.073 124.492 205.482Z"/>
	<path fill="#DD403A" transform="scale(2 2)" d="M134.698 162.239C135.438 163.03 135.896 163.9 136.412 164.841C132.447 180.868 129.66 182.649 129.942 202.206C129.996 205.979 128.133 208.002 124.492 205.482C126.202 189.59 122.174 177.659 134.698 162.239Z"/>
	<path fill="#3E363F" transform="scale(2 2)" d="M156.737 149.625C151.724 154.866 131.169 144.43 157.312 129.83C170.634 122.39 186.377 118.327 201.696 119.412C206.181 119.73 213.726 121.258 213.185 127.273C212.108 130.986 211.227 132.683 207.613 134.007C201.642 134.138 195.505 133.63 189.569 134.237C181.195 135.093 160.762 141.519 156.737 149.625Z"/>
	<path fill="white" transform="scale(2 2)" d="M151.1 145.942C140.762 136.858 188.281 119.557 206.273 125.329C203.462 125.744 200.605 125.246 197.793 125.081C186.685 124.427 151.827 132.578 151.1 145.942Z"/>
	<path fill="#DD403A" transform="scale(2 2)" d="M151.1 145.942C151.827 132.578 186.685 124.427 197.793 125.081C200.605 125.246 203.462 125.744 206.273 125.329C207.777 125.915 208.096 126.625 207.631 128.184C205.473 130.908 197.884 129.25 194.796 129.397C183.594 129.931 173.319 133.373 163.445 138.524C159.445 140.61 155.652 145.649 151.1 145.942Z"/>
</svg>
